BosaLisuMaster-Black.ufo
<glyph name="comma" format="2">
  <advance width="205"/>
  <unicode hex="002C"/>
  <outline>
    <contour>
      <point x="158" y="20" type="curve" smooth="yes"/>
      <point x="158" y="-60"/>
      <point x="106" y="-109"/>
      <point x="26" y="-132" type="curve"/>
      <point x="26" y="-91" type="line"/>
      <point x="62" y="-79"/>
      <point x="97" y="-62"/>
      <point x="97" y="-27" type="curve" smooth="yes"/>
      <point x="97" y="-18"/>
      <point x="89" y="-13"/>
      <point x="82" y="-8" type="curve"/>
      <point x="79" y="-7"/>
      <point x="76" y="-6"/>
      <point x="72" y="-3" type="curve"/>
      <point x="57" y="4"/>
      <point x="43" y="15"/>
      <point x="43" y="40" type="curve" smooth="yes"/>
      <point x="43" y="73"/>
      <point x="65" y="89"/>
      <point x="96" y="89" type="curve" smooth="yes"/>
      <point x="137" y="89"/>
      <point x="158" y="56"/>
    </contour>
  </outline>
</glyph>
<glyph name="zero" format="2">
  <advance width="474"/>
  <unicode hex="0030"/>
  <outline>
    <contour>
      <point x="409" y="262" type="qcurve"/>
      <point x="409" y="158"/>
      <point x="375" y="87" type="qcurve"/>
      <point x="329" y="-8"/>
      <point x="238" y="-8" type="qcurve"/>
      <point x="146" y="-8"/>
      <point x="100" y="88" type="qcurve"/>
      <point x="65" y="161"/>
      <point x="65" y="264" type="qcurve"/>
      <point x="65" y="368"/>
      <point x="100" y="442" type="qcurve"/>
      <point x="146" y="539"/>
      <point x="237" y="539" type="qcurve"/>
      <point x="329" y="539"/>
      <point x="375" y="441" type="qcurve"/>
      <point x="409" y="368"/>
    </contour>
    <contour>
      <point x="333" y="264" type="qcurve"/>
      <point x="333" y="463"/>
      <point x="236" y="463" type="qcurve"/>
      <point x="142" y="463"/>
      <point x="142" y="277" type="qcurve"/>
      <point x="142" y="67"/>
      <point x="237" y="67" type="qcurve"/>
      <point x="333" y="67"/>
    </contour>
  </outline>
</glyph>
<glyph name="one" format="2">
  <advance width="474"/>
  <unicode hex="0031"/>
  <outline>
    <contour>
      <point x="310" y="2" type="line"/>
      <point x="234" y="2" type="line"/>
      <point x="234" y="396" type="line"/>
      <point x="175" y="347"/>
      <point x="114" y="321" type="qcurve"/>
      <point x="114" y="399" type="line"/>
      <point x="215" y="452"/>
      <point x="248" y="531" type="qcurve"/>
      <point x="310" y="531" type="line"/>
    </contour>
  </outline>
</glyph>
<glyph name="two" format="2">
  <advance width="474"/>
  <unicode hex="0032"/>
  <outline>
    <contour>
      <point x="414" y="2" type="line"/>
      <point x="65" y="2" type="line"/>
      <point x="65" y="52" type="line"/>
      <point x="65" y="93"/>
      <point x="135" y="155" type="qcurve"/>
      <point x="179" y="192"/>
      <point x="265" y="268" type="qcurve"/>
      <point x="335" y="332"/>
      <point x="335" y="388" type="qcurve"/>
      <point x="335" y="421"/>
      <point x="282" y="462"/>
      <point x="248" y="462" type="qcurve"/>
      <point x="206" y="462"/>
      <point x="178" y="440" type="qcurve"/>
      <point x="147" y="416"/>
      <point x="143" y="376" type="qcurve"/>
      <point x="69" y="383" type="line"/>
      <point x="76" y="454"/>
      <point x="177" y="537"/>
      <point x="249" y="537" type="qcurve"/>
      <point x="314" y="537"/>
      <point x="363" y="498" type="qcurve"/>
      <point x="414" y="456"/>
      <point x="414" y="392" type="qcurve"/>
      <point x="414" y="321"/>
      <point x="356" y="253" type="qcurve"/>
      <point x="333" y="226"/>
      <point x="243" y="146" type="qcurve"/>
      <point x="212" y="118"/>
      <point x="170" y="79" type="qcurve"/>
      <point x="414" y="79" type="line"/>
    </contour>
  </outline>
</glyph>
<glyph name="seven" format="2">
  <advance width="474"/>
  <unicode hex="0037"/>
  <outline>
    <contour>
      <point x="403" y="472" type="line"/>
      <point x="234" y="258"/>
      <point x="213" y="0" type="qcurve"/>
      <point x="135" y="0" type="line"/>
      <point x="155" y="256"/>
      <point x="296" y="452" type="qcurve"/>
      <point x="65" y="452" type="line"/>
      <point x="65" y="531" type="line"/>
      <point x="403" y="531" type="line"/>
    </contour>
  </outline>
</glyph>
<glyph name="eight" format="2">
  <advance width="474"/>
  <unicode hex="0038"/>
  <outline>
    <contour>
      <point x="413" y="146" type="qcurve"/>
      <point x="413" y="78"/>
      <point x="308" y="-10"/>
      <point x="239" y="-10" type="qcurve"/>
      <point x="170" y="-10"/>
      <point x="119" y="34" type="qcurve"/>
      <point x="65" y="80"/>
      <point x="65" y="148" type="qcurve"/>
      <point x="65" y="238"/>
      <point x="144" y="287" type="qcurve"/>
      <point x="87" y="328"/>
      <point x="87" y="398" type="qcurve"/>
      <point x="87" y="459"/>
      <point x="177" y="538"/>
      <point x="238" y="538" type="qcurve"/>
      <point x="301" y="538"/>
      <point x="392" y="458"/>
      <point x="392" y="396" type="qcurve"/>
      <point x="392" y="333"/>
      <point x="336" y="284" type="qcurve"/>
      <point x="413" y="236"/>
    </contour>
    <contour>
      <point x="314" y="393" type="qcurve"/>
      <point x="314" y="425"/>
      <point x="271" y="469"/>
      <point x="239" y="469" type="qcurve"/>
      <point x="207" y="469"/>
      <point x="163" y="425"/>
      <point x="163" y="393" type="qcurve"/>
      <point x="163" y="363"/>
      <point x="207" y="318"/>
      <point x="237" y="318" type="qcurve"/>
      <point x="269" y="318"/>
      <point x="314" y="361"/>
    </contour>
    <contour>
      <point x="335" y="152" type="qcurve"/>
      <point x="335" y="193"/>
      <point x="279" y="249"/>
      <point x="238" y="249" type="qcurve"/>
      <point x="198" y="249"/>
      <point x="142" y="194"/>
      <point x="142" y="154" type="qcurve"/>
      <point x="142" y="114"/>
      <point x="200" y="59"/>
      <point x="240" y="59" type="qcurve"/>
      <point x="278" y="59"/>
      <point x="335" y="114"/>
    </contour>
  </outline>
</glyph>
<glyph name="nine" format="2">
  <advance width="474"/>
  <unicode hex="0039"/>
  <outline>
    <contour>
      <point x="412" y="279" type="qcurve"/>
      <point x="412" y="-18"/>
      <point x="224" y="-18" type="qcurve"/>
      <point x="165" y="-18"/>
      <point x="81" y="48"/>
      <point x="75" y="105" type="qcurve"/>
      <point x="148" y="113" type="line"/>
      <point x="151" y="88"/>
      <point x="193" y="54"/>
      <point x="218" y="54" type="qcurve"/>
      <point x="275" y="54"/>
      <point x="309" y="113" type="qcurve"/>
      <point x="335" y="159"/>
      <point x="335" y="224" type="qcurve"/>
      <point x="335" y="236" type="line"/>
      <point x="296" y="190"/>
      <point x="223" y="190" type="qcurve"/>
      <point x="152" y="190"/>
      <point x="65" y="288"/>
      <point x="65" y="359" type="qcurve"/>
      <point x="65" y="432"/>
      <point x="158" y="539"/>
      <point x="230" y="539" type="qcurve"/>
      <point x="330" y="539"/>
      <point x="376" y="454" type="qcurve"/>
      <point x="412" y="388"/>
    </contour>
    <contour>
      <point x="324" y="362" type="qcurve"/>
      <point x="324" y="405"/>
      <point x="271" y="468"/>
      <point x="229" y="468" type="qcurve"/>
      <point x="189" y="468"/>
      <point x="140" y="405"/>
      <point x="140" y="364" type="qcurve"/>
      <point x="140" y="321"/>
      <point x="190" y="259"/>
      <point x="232" y="259" type="qcurve"/>
      <point x="271" y="259"/>
      <point x="324" y="322"/>
    </contour>
  </outline>
</glyph>
<glyph name="less" format="2">
  <advance width="496"/>
  <unicode hex="003C"/>
  <outline>
    <contour>
      <point x="40" y="269" type="line"/>
      <point x="415" y="68" type="line"/>
      <point x="451" y="138" type="line"/>
      <point x="92" y="320" type="line"/>
      <point x="92" y="278" type="line"/>
      <point x="451" y="461" type="line"/>
      <point x="415" y="531" type="line"/>
      <point x="40" y="329" type="line"/>
    </contour>
  </outline>
</glyph>
<glyph name="greater" format="2">
  <advance width="496"/>
  <unicode hex="003E"/>
  <outline>
    <contour>
      <point x="455" y="329" type="line"/>
      <point x="80" y="531" type="line"/>
      <point x="45" y="461" type="line"/>
      <point x="403" y="278" type="line"/>
      <point x="403" y="320" type="line"/>
      <point x="45" y="138" type="line"/>
      <point x="80" y="68" type="line"/>
      <point x="455" y="269" type="line"/>
    </contour>
  </outline>
</glyph>
<glyph name="question" format="2">
  <advance width="447"/>
  <unicode hex="003F"/>
  <outline>
    <contour>
      <point x="209" y="-8" type="curve" smooth="yes"/>
      <point x="256" y="-8"/>
      <point x="293" y="30"/>
      <point x="293" y="76" type="curve" smooth="yes"/>
      <point x="293" y="122"/>
      <point x="256" y="160"/>
      <point x="209" y="160" type="curve" smooth="yes"/>
      <point x="163" y="160"/>
      <point x="125" y="122"/>
      <point x="125" y="76" type="curve" smooth="yes"/>
      <point x="125" y="30"/>
      <point x="163" y="-8"/>
    </contour>
    <contour>
      <point x="395" y="437" type="curve" smooth="yes"/>
      <point x="395" y="513"/>
      <point x="299" y="558"/>
      <point x="214" y="558" type="curve" smooth="yes"/>
      <point x="120" y="558"/>
      <point x="26" y="500"/>
      <point x="26" y="407" type="curve"/>
      <point x="150" y="407" type="line"/>
      <point x="150" y="437"/>
      <point x="153" y="472"/>
      <point x="204" y="472" type="curve" smooth="yes"/>
      <point x="239" y="472"/>
      <point x="251" y="453"/>
      <point x="251" y="433" type="curve" smooth="yes"/>
      <point x="251" y="410"/>
      <point x="228" y="388"/>
      <point x="203" y="362" type="curve" smooth="yes"/>
      <point x="170" y="327"/>
      <point x="137" y="288"/>
      <point x="137" y="245" type="curve" smooth="yes"/>
      <point x="137" y="217" type="line"/>
      <point x="281" y="217" type="line"/>
      <point x="281" y="235" type="line" smooth="yes"/>
      <point x="281" y="265"/>
      <point x="309" y="297"/>
      <point x="340" y="332" type="curve" smooth="yes"/>
      <point x="368" y="363"/>
      <point x="395" y="394"/>
    </contour>
  </outline>
</glyph>
<glyph name="L" format="2">
  <advance width="538"/>
  <unicode hex="004C"/>
  <anchor x="181" y="632" name="aboveUC"/>
  <anchor x="289" y="-20" name="belowLC"/>
  <outline>
    <contour>
      <point x="34" y="0" type="line"/>
      <point x="175" y="0" type="line"/>
      <point x="175" y="58" type="line"/>
      <point x="162" y="58" type="line"/>
      <point x="34" y="45" type="line"/>
    </contour>
    <contour>
      <point x="109" y="189"/>
      <point x="109" y="93"/>
      <point x="106" y="0" type="curve"/>
      <point x="244" y="0" type="line"/>
      <point x="241" y="93"/>
      <point x="241" y="189"/>
      <point x="241" y="269" type="curve" smooth="yes"/>
      <point x="241" y="322" type="line" smooth="yes"/>
      <point x="241" y="418"/>
      <point x="241" y="514"/>
      <point x="244" y="608" type="curve"/>
      <point x="106" y="608" type="line"/>
      <point x="109" y="514"/>
      <point x="109" y="418"/>
      <point x="109" y="322" type="curve" smooth="yes"/>
      <point x="109" y="272" type="line" smooth="yes"/>
    </contour>
    <contour>
      <point x="175" y="0" type="line"/>
      <point x="504" y="0" type="line"/>
      <point x="513" y="177" type="line"/>
      <point x="445" y="177" type="line"/>
      <point x="414" y="23" type="line"/>
      <point x="447" y="50" type="line"/>
      <point x="175" y="50" type="line"/>
    </contour>
    <contour>
      <point x="34" y="563" type="line"/>
      <point x="162" y="549" type="line"/>
      <point x="191" y="549" type="line"/>
      <point x="322" y="563" type="line"/>
      <point x="322" y="608" type="line"/>
      <point x="34" y="608" type="line"/>
    </contour>
  </outline>
</glyph>
<glyph name="M" format="2">
  <advance width="826"/>
  <unicode hex="004D"/>
  <anchor x="404" y="632" name="aboveUC"/>
  <anchor x="376" y="-20" name="belowLC"/>
  <outline>
    <contour>
      <point x="23" y="0" type="line"/>
      <point x="241" y="0" type="line"/>
      <point x="241" y="45" type="line"/>
      <point x="150" y="58" type="line"/>
      <point x="126" y="58" type="line"/>
      <point x="23" y="45" type="line"/>
    </contour>
    <contour>
      <point x="28" y="563" type="line"/>
      <point x="143" y="549" type="line"/>
      <point x="158" y="549" type="line"/>
      <point x="157" y="608" type="line"/>
      <point x="28" y="608" type="line"/>
    </contour>
    <contour>
      <point x="110" y="0" type="line"/>
      <point x="165" y="0" type="line"/>
      <point x="165" y="303" type="line"/>
      <point x="158" y="608" type="line"/>
      <point x="110" y="608" type="line"/>
    </contour>
    <contour>
      <point x="348" y="0" type="line"/>
      <point x="411" y="0" type="line"/>
      <point x="632" y="608" type="line"/>
      <point x="575" y="608" type="line"/>
      <point x="400" y="127" type="line"/>
      <point x="431" y="127" type="line"/>
      <point x="246" y="608" type="line"/>
      <point x="114" y="608" type="line"/>
    </contour>
    <contour>
      <point x="513" y="0" type="line"/>
      <point x="792" y="0" type="line"/>
      <point x="792" y="45" type="line"/>
      <point x="663" y="58" type="line"/>
      <point x="629" y="58" type="line"/>
      <point x="513" y="45" type="line"/>
    </contour>
    <contour>
      <point x="582" y="0" type="curve"/>
      <point x="719" y="0" type="line"/>
      <point x="716" y="93"/>
      <point x="716" y="189"/>
      <point x="716" y="285" type="curve" smooth="yes"/>
      <point x="716" y="322" type="line" smooth="yes"/>
      <point x="716" y="418"/>
      <point x="716" y="514"/>
      <point x="719" y="608" type="curve"/>
      <point x="587" y="608" type="line"/>
      <point x="585" y="272" type="line" smooth="yes"/>
      <point x="585" y="189"/>
      <point x="585" y="93"/>
    </contour>
    <contour>
      <point x="650" y="549" type="line"/>
      <point x="663" y="549" type="line"/>
      <point x="790" y="563" type="line"/>
      <point x="790" y="608" type="line"/>
      <point x="650" y="608" type="line"/>
    </contour>
  </outline>
</glyph>
<glyph name="N" format="2">
  <advance width="671"/>
  <unicode hex="004E"/>
  <anchor x="331" y="632" name="aboveUC"/>
  <anchor x="348" y="-20" name="belowLC"/>
  <outline>
    <contour>
      <point x="29" y="0" type="line"/>
      <point x="264" y="0" type="line"/>
      <point x="264" y="45" type="line"/>
      <point x="150" y="58" type="line"/>
      <point x="126" y="58" type="line"/>
      <point x="29" y="45" type="line"/>
    </contour>
    <contour>
      <point x="107" y="0" type="line"/>
      <point x="162" y="0" type="line"/>
      <point x="162" y="584" type="line"/>
      <point x="107" y="584" type="line"/>
    </contour>
    <contour>
      <point x="406" y="563" type="line"/>
      <point x="525" y="549" type="line"/>
      <point x="549" y="549" type="line"/>
      <point x="642" y="563" type="line"/>
      <point x="642" y="608" type="line"/>
      <point x="406" y="608" type="line"/>
    </contour>
    <contour>
      <point x="501" y="-2" type="line"/>
      <point x="563" y="-2" type="line"/>
      <point x="563" y="608" type="line"/>
      <point x="508" y="608" type="line"/>
      <point x="508" y="207" type="line"/>
      <point x="218" y="608" type="line"/>
      <point x="32" y="608" type="line"/>
      <point x="32" y="562" type="line"/>
      <point x="95" y="555" type="line"/>
    </contour>
  </outline>
</glyph>
<glyph name="T" format="2">
  <advance width="574"/>
  <unicode hex="0054"/>
  <anchor x="287" y="632" name="aboveUC"/>
  <anchor x="287" y="0" name="baseLC"/>
  <anchor x="287" y="-20" name="belowLC"/>
  <outline>
    <contour>
      <point x="135" y="0" type="line"/>
      <point x="438" y="0" type="line"/>
      <point x="438" y="45" type="line"/>
      <point x="302" y="58" type="line"/>
      <point x="269" y="58" type="line"/>
      <point x="135" y="45" type="line"/>
    </contour>
    <contour>
      <point x="220" y="188"/>
      <point x="220" y="92"/>
      <point x="218" y="0" type="curve"/>
      <point x="356" y="0" type="line"/>
      <point x="353" y="94"/>
      <point x="353" y="190"/>
      <point x="353" y="285" type="curve" smooth="yes"/>
      <point x="353" y="322" type="line" smooth="yes"/>
      <point x="353" y="419"/>
      <point x="353" y="515"/>
      <point x="356" y="608" type="curve"/>
      <point x="218" y="608" type="line"/>
      <point x="220" y="513"/>
      <point x="220" y="417"/>
      <point x="220" y="322" type="curve" smooth="yes"/>
      <point x="220" y="285" type="line" smooth="yes"/>
    </contour>
    <contour>
      <point x="18" y="439" type="line"/>
      <point x="87" y="439" type="line"/>
      <point x="113" y="608" type="line"/>
      <point x="54" y="558" type="line"/>
      <point x="519" y="558" type="line"/>
      <point x="461" y="608" type="line"/>
      <point x="487" y="439" type="line"/>
      <point x="555" y="439" type="line"/>
      <point x="551" y="608" type="line"/>
      <point x="23" y="608" type="line"/>
    </contour>
  </outline>
</glyph>
<glyph name="W" format="2">
  <advance width="897"/>
  <unicode hex="0057"/>
  <anchor x="483" y="632" name="aboveUC"/>
  <anchor x="455" y="-20" name="belowLC"/>
  <outline>
    <contour>
      <point x="237" y="-2" type="line"/>
      <point x="310" y="-2" type="line"/>
      <point x="453" y="461" type="line"/>
      <point x="437" y="460" type="line"/>
      <point x="585" y="-2" type="line"/>
      <point x="658" y="-2" type="line"/>
      <point x="835" y="608" type="line"/>
      <point x="780" y="608" type="line"/>
      <point x="646" y="133" type="line"/>
      <point x="662" y="133" type="line"/>
      <point x="521" y="608" type="line"/>
      <point x="448" y="608" type="line"/>
      <point x="301" y="140" type="line"/>
      <point x="317" y="139" type="line"/>
      <point x="195" y="608" type="line"/>
      <point x="57" y="608" type="line"/>
    </contour>
    <contour>
      <point x="9" y="563" type="line"/>
      <point x="136" y="549" type="line"/>
      <point x="162" y="549" type="line"/>
      <point x="283" y="563" type="line"/>
      <point x="283" y="608" type="line"/>
      <point x="9" y="608" type="line"/>
    </contour>
    <contour>
      <point x="355" y="563" type="line"/>
      <point x="469" y="549" type="line"/>
      <point x="508" y="549" type="line"/>
      <point x="622" y="563" type="line"/>
      <point x="622" y="608" type="line"/>
      <point x="355" y="608" type="line"/>
    </contour>
    <contour>
      <point x="692" y="563" type="line"/>
      <point x="782" y="549" type="line"/>
      <point x="805" y="549" type="line"/>
      <point x="892" y="563" type="line"/>
      <point x="892" y="608" type="line"/>
      <point x="692" y="608" type="line"/>
    </contour>
  </outline>
</glyph>
<glyph name="X" format="2">
  <advance width="599"/>
  <unicode hex="0058"/>
  <anchor x="304" y="632" name="aboveUC"/>
  <anchor x="282" y="-20" name="belowLC"/>
  <outline>
    <contour>
      <point x="7" y="0" type="line"/>
      <point x="207" y="0" type="line"/>
      <point x="207" y="45" type="line"/>
      <point x="117" y="55" type="line"/>
      <point x="97" y="55" type="line"/>
      <point x="7" y="45" type="line"/>
    </contour>
    <contour>
      <point x="48" y="0" type="line"/>
      <point x="113" y="0" type="line"/>
      <point x="305" y="304" type="line"/>
      <point x="264" y="325" type="line"/>
    </contour>
    <contour>
      <point x="304" y="0" type="line"/>
      <point x="592" y="0" type="line"/>
      <point x="592" y="45" type="line"/>
      <point x="463" y="58" type="line"/>
      <point x="429" y="58" type="line"/>
      <point x="304" y="45" type="line"/>
    </contour>
    <contour>
      <point x="326" y="298" type="line"/>
      <point x="527" y="608" type="line"/>
      <point x="462" y="608" type="line"/>
      <point x="287" y="320" type="line"/>
    </contour>
    <contour>
      <point x="408" y="0" type="line"/>
      <point x="553" y="0" type="line"/>
      <point x="195" y="608" type="line"/>
      <point x="50" y="608" type="line"/>
    </contour>
    <contour>
      <point x="12" y="563" type="line"/>
      <point x="129" y="549" type="line"/>
      <point x="167" y="549" type="line"/>
      <point x="290" y="563" type="line"/>
      <point x="290" y="608" type="line"/>
      <point x="12" y="608" type="line"/>
    </contour>
    <contour>
      <point x="367" y="563" type="line"/>
      <point x="455" y="553" type="line"/>
      <point x="476" y="553" type="line"/>
      <point x="565" y="563" type="line"/>
      <point x="565" y="608" type="line"/>
      <point x="367" y="608" type="line"/>
    </contour>
  </outline>
</glyph>
<glyph name="asciicircum" format="2">
  <advance width="496"/>
  <unicode hex="005E"/>
  <outline>
    <contour>
      <point x="59" y="216" type="line"/>
      <point x="117" y="175" type="line"/>
      <point x="270" y="412" type="line"/>
      <point x="226" y="412" type="line"/>
      <point x="379" y="175" type="line"/>
      <point x="437" y="216" type="line"/>
      <point x="284" y="457" type="line"/>
      <point x="213" y="457" type="line"/>
    </contour>
  </outline>
</glyph>
<glyph name="grave" format="2">
  <advance width="368"/>
  <unicode hex="0060"/>
  <anchor x="198" y="471" name="_aboveLC"/>
  <anchor x="198" y="690" name="aboveLC"/>
  <outline>
    <contour>
      <point x="254" y="534" type="line"/>
      <point x="235" y="568"/>
      <point x="216" y="600"/>
      <point x="180" y="657" type="curve" smooth="yes"/>
      <point x="157" y="694"/>
      <point x="140" y="708"/>
      <point x="115" y="708" type="curve" smooth="yes"/>
      <point x="92" y="708"/>
      <point x="69" y="692"/>
      <point x="69" y="662" type="curve" smooth="yes"/>
      <point x="69" y="640"/>
      <point x="86" y="621"/>
      <point x="119" y="595" type="curve" smooth="yes"/>
      <point x="167" y="556"/>
      <point x="195" y="533"/>
      <point x="224" y="509" type="curve"/>
    </contour>
  </outline>
</glyph>
<glyph name="b" format="2">
  <advance width="550"/>
  <unicode hex="0062"/>
  <anchor x="135" y="667" name="aboveLC"/>
  <anchor x="286" y="-20" name="belowLC"/>
  <outline>
    <contour>
      <point x="26" y="0" type="line"/>
      <point x="188" y="-11" type="line"/>
      <point x="207" y="69" type="line"/>
      <point x="207" y="370" type="line"/>
      <point x="205" y="382" type="line"/>
      <point x="205" y="534" type="line"/>
      <point x="208" y="663" type="line"/>
      <point x="194" y="672" type="line"/>
      <point x="20" y="631" type="line"/>
      <point x="20" y="594" type="line"/>
      <point x="83" y="586" type="line"/>
      <point x="83" y="193" type="line" smooth="yes"/>
      <point x="83" y="152"/>
      <point x="83" y="94"/>
      <point x="82" y="49" type="curve"/>
      <point x="26" y="39" type="line"/>
    </contour>
    <contour>
      <point x="216" y="13"/>
      <point x="263" y="-12"/>
      <point x="325" y="-12" type="curve" smooth="yes"/>
      <point x="430" y="-12"/>
      <point x="518" y="78"/>
      <point x="518" y="225" type="curve" smooth="yes"/>
      <point x="518" y="374"/>
      <point x="440" y="455"/>
      <point x="340" y="455" type="curve" smooth="yes"/>
      <point x="281" y="455"/>
      <point x="229" y="427"/>
      <point x="183" y="367" type="curve"/>
      <point x="151" y="367" type="line"/>
      <point x="160" y="302" type="line"/>
      <point x="202" y="345"/>
      <point x="244" y="384"/>
      <point x="287" y="384" type="curve" smooth="yes"/>
      <point x="347" y="384"/>
      <point x="388" y="333"/>
      <point x="388" y="220" type="curve" smooth="yes"/>
      <point x="388" y="108"/>
      <point x="343" y="56"/>
      <point x="285" y="56" type="curve" smooth="yes"/>
      <point x="241" y="56"/>
      <point x="206" y="83"/>
      <point x="164" y="138" type="curve"/>
      <point x="156" y="81" type="line"/>
      <point x="176" y="81" type="line"/>
    </contour>
  </outline>
</glyph>
<glyph name="g" format="2">
  <advance width="491"/>
  <unicode hex="0067"/>
  <anchor x="239" y="471" name="aboveLC"/>
  <anchor x="239" y="-218" name="belowLC"/>
  <outline>
    <contour>
      <point x="20" y="-162"/>
      <point x="69" y="-212"/>
      <point x="215" y="-212" type="curve" smooth="yes"/>
      <point x="383" y="-212"/>
      <point x="471" y="-134"/>
      <point x="471" y="-45" type="curve" smooth="yes"/>
      <point x="471" y="33"/>
      <point x="423" y="83"/>
      <point x="296" y="83" type="curve" smooth="yes"/>
      <point x="184" y="83" type="line" smooth="yes"/>
      <point x="143" y="83"/>
      <point x="130" y="98"/>
      <point x="130" y="120" type="curve" smooth="yes"/>
      <point x="130" y="145"/>
      <point x="138" y="161"/>
      <point x="157" y="183" type="curve"/>
      <point x="122" y="198" type="line"/>
      <point x="122" y="188" type="line"/>
      <point x="70" y="144"/>
      <point x="45" y="107"/>
      <point x="45" y="67" type="curve" smooth="yes"/>
      <point x="45" y="31"/>
      <point x="66" y="3"/>
      <point x="113" y="-10" type="curve"/>
      <point x="113" y="-14" type="line"/>
      <point x="133" y="-22"/>
      <point x="161" y="-24"/>
      <point x="195" y="-24" type="curve" smooth="yes"/>
      <point x="295" y="-24" type="line" smooth="yes"/>
      <point x="350" y="-24"/>
      <point x="370" y="-52"/>
      <point x="370" y="-84" type="curve" smooth="yes"/>
      <point x="370" y="-127"/>
      <point x="321" y="-161"/>
      <point x="226" y="-161" type="curve" smooth="yes"/>
      <point x="146" y="-161"/>
      <point x="104" y="-138"/>
      <point x="104" y="-81" type="curve" smooth="yes"/>
      <point x="104" y="-50"/>
      <point x="115" y="-31"/>
      <point x="139" y="0" type="curve"/>
      <point x="128" y="6" type="line"/>
      <point x="51" y="-23"/>
      <point x="20" y="-58"/>
      <point x="20" y="-103" type="curve" smooth="yes"/>
    </contour>
    <contour>
      <point x="40" y="216"/>
      <point x="104" y="157"/>
      <point x="224" y="157" type="curve" smooth="yes"/>
      <point x="343" y="157"/>
      <point x="408" y="218"/>
      <point x="408" y="305" type="curve" smooth="yes"/>
      <point x="408" y="397"/>
      <point x="344" y="455"/>
      <point x="224" y="455" type="curve" smooth="yes"/>
      <point x="105" y="455"/>
      <point x="40" y="394"/>
      <point x="40" y="305" type="curve" smooth="yes"/>
    </contour>
    <contour>
      <point x="297" y="241"/>
      <point x="271" y="198"/>
      <point x="222" y="198" type="curve" smooth="yes"/>
      <point x="175" y="198"/>
      <point x="152" y="240"/>
      <point x="152" y="306" type="curve" smooth="yes"/>
      <point x="152" y="371"/>
      <point x="178" y="414"/>
      <point x="225" y="414" type="curve" smooth="yes"/>
      <point x="271" y="414"/>
      <point x="297" y="372"/>
      <point x="297" y="308" type="curve" smooth="yes"/>
    </contour>
    <contour>
      <point x="339" y="380" type="line"/>
      <point x="478" y="380" type="line"/>
      <point x="478" y="447" type="line"/>
      <point x="464" y="456" type="line"/>
      <point x="345" y="409" type="line"/>
      <point x="339" y="409" type="line"/>
    </contour>
  </outline>
</glyph>
<glyph name="j" format="2">
  <advance width="273"/>
  <unicode hex="006A"/>
  <anchor x="144" y="659" name="aboveLC"/>
  <anchor x="61" y="-230" name="belowLC"/>
  <outline>
    <contour>
      <point x="8" y="-221" type="curve" smooth="yes"/>
      <point x="57" y="-221"/>
      <point x="104" y="-207"/>
      <point x="147" y="-164" type="curve" smooth="yes"/>
      <point x="194" y="-117"/>
      <point x="206" y="-59"/>
      <point x="206" y="63" type="curve" smooth="yes"/>
      <point x="206" y="314" type="line"/>
      <point x="208" y="446" type="line"/>
      <point x="194" y="455" type="line"/>
      <point x="20" y="396" type="line"/>
      <point x="20" y="360" type="line"/>
      <point x="81" y="352" type="line"/>
      <point x="83" y="315"/>
      <point x="84" y="287"/>
      <point x="84" y="236" type="curve" smooth="yes"/>
      <point x="84" y="82" type="line" smooth="yes"/>
      <point x="84" y="-19"/>
      <point x="87" y="-101"/>
      <point x="75" y="-143" type="curve" smooth="yes"/>
      <point x="65" y="-178"/>
      <point x="45" y="-188"/>
      <point x="17" y="-188" type="curve"/>
      <point x="22" y="-207" type="line"/>
      <point x="85" y="-194" type="line"/>
      <point x="50" y="-149" type="line" smooth="yes"/>
      <point x="27" y="-119"/>
      <point x="1" y="-104"/>
      <point x="-28" y="-104" type="curve" smooth="yes"/>
      <point x="-61" y="-104"/>
      <point x="-92" y="-125"/>
      <point x="-97" y="-161" type="curve"/>
      <point x="-88" y="-192"/>
      <point x="-54" y="-221"/>
    </contour>
    <contour>
      <point x="144" y="534" type="curve" smooth="yes"/>
      <point x="184" y="534"/>
      <point x="217" y="563"/>
      <point x="217" y="602" type="curve" smooth="yes"/>
      <point x="217" y="644"/>
      <point x="184" y="671"/>
      <point x="144" y="671" type="curve" smooth="yes"/>
      <point x="104" y="671"/>
      <point x="71" y="644"/>
      <point x="71" y="602" type="curve" smooth="yes"/>
      <point x="71" y="563"/>
      <point x="104" y="534"/>
    </contour>
  </outline>
</glyph>
<glyph name="l" format="2">
  <advance width="289"/>
  <unicode hex="006C"/>
  <anchor x="139" y="667" name="aboveLC"/>
  <anchor x="149" y="-20" name="belowLC"/>
  <outline>
    <contour>
      <point x="23" y="0" type="line"/>
      <point x="267" y="0" type="line"/>
      <point x="267" y="39" type="line"/>
      <point x="170" y="57" type="line"/>
      <point x="116" y="57" type="line"/>
      <point x="23" y="39" type="line"/>
    </contour>
    <contour>
      <point x="83" y="128"/>
      <point x="82" y="64"/>
      <point x="80" y="0" type="curve"/>
      <point x="210" y="0" type="line"/>
      <point x="208" y="64"/>
      <point x="207" y="128"/>
      <point x="207" y="193" type="curve" smooth="yes"/>
      <point x="207" y="534" type="line"/>
      <point x="211" y="663" type="line"/>
      <point x="196" y="672" type="line"/>
      <point x="20" y="631" type="line"/>
      <point x="20" y="594" type="line"/>
      <point x="83" y="585" type="line"/>
      <point x="83" y="193" type="line" smooth="yes"/>
    </contour>
  </outline>
</glyph>
<glyph name="n" format="2">
  <advance width="563"/>
  <unicode hex="006E"/>
  <anchor x="292" y="471" name="aboveLC"/>
  <anchor x="291" y="-20" name="belowLC"/>
  <outline>
    <contour>
      <point x="361" y="0" type="curve"/>
      <point x="491" y="0" type="line"/>
      <point x="489" y="41"/>
      <point x="488" y="134"/>
      <point x="488" y="193" type="curve" smooth="yes"/>
      <point x="488" y="293" type="line" smooth="yes"/>
      <point x="488" y="403"/>
      <point x="439" y="455"/>
      <point x="360" y="455" type="curve" smooth="yes"/>
      <point x="299" y="455"/>
      <point x="244" y="425"/>
      <point x="194" y="360" type="curve"/>
      <point x="177" y="360" type="line"/>
      <point x="184" y="308" type="line"/>
      <point x="226" y="351"/>
      <point x="268" y="374"/>
      <point x="305" y="374" type="curve" smooth="yes"/>
      <point x="347" y="374"/>
      <point x="364" y="351"/>
      <point x="364" y="283" type="curve" smooth="yes"/>
      <point x="364" y="193" type="line" smooth="yes"/>
      <point x="364" y="134"/>
      <point x="363" y="41"/>
    </contour>
    <contour>
      <point x="29" y="0" type="line"/>
      <point x="262" y="0" type="line"/>
      <point x="262" y="39" type="line"/>
      <point x="173" y="57" type="line"/>
      <point x="119" y="57" type="line"/>
      <point x="29" y="39" type="line"/>
    </contour>
    <contour>
      <point x="84" y="0" type="curve"/>
      <point x="213" y="0" type="line"/>
      <point x="211" y="41"/>
      <point x="210" y="136"/>
      <point x="210" y="193" type="curve" smooth="yes"/>
      <point x="210" y="342" type="line"/>
      <point x="201" y="446" type="line"/>
      <point x="185" y="455" type="line"/>
      <point x="22" y="396" type="line"/>
      <point x="22" y="360" type="line"/>
      <point x="84" y="352" type="line"/>
      <point x="86" y="315"/>
      <point x="87" y="294"/>
      <point x="87" y="243" type="curve" smooth="yes"/>
      <point x="87" y="193" type="line" smooth="yes"/>
      <point x="87" y="136"/>
      <point x="86" y="41"/>
    </contour>
    <contour>
      <point x="309" y="0" type="line"/>
      <point x="541" y="0" type="line"/>
      <point x="541" y="39" type="line"/>
      <point x="451" y="57" type="line"/>
      <point x="397" y="57" type="line"/>
      <point x="309" y="39" type="line"/>
    </contour>
  </outline>
</glyph>
<glyph name="p" format="2">
  <advance width="553"/>
  <unicode hex="0070"/>
  <anchor x="284" y="471" name="aboveLC"/>
  <anchor x="153" y="-226" name="belowLC"/>
  <outline>
    <contour>
      <point x="28" y="-212" type="line"/>
      <point x="278" y="-212" type="line"/>
      <point x="278" y="-172" type="line"/>
      <point x="188" y="-154" type="line"/>
      <point x="121" y="-154" type="line"/>
      <point x="28" y="-172" type="line"/>
    </contour>
    <contour>
      <point x="89" y="-70"/>
      <point x="88" y="-136"/>
      <point x="86" y="-212" type="curve"/>
      <point x="212" y="-212" type="line"/>
      <point x="210" y="-136"/>
      <point x="209" y="-69"/>
      <point x="209" y="-9" type="curve" smooth="yes"/>
      <point x="209" y="65" type="line"/>
      <point x="212" y="74" type="line"/>
      <point x="212" y="362" type="line"/>
      <point x="207" y="372" type="line"/>
      <point x="202" y="446" type="line"/>
      <point x="186" y="455" type="line"/>
      <point x="24" y="396" type="line"/>
      <point x="24" y="360" type="line"/>
      <point x="86" y="352" type="line"/>
      <point x="88" y="315"/>
      <point x="89" y="294"/>
      <point x="89" y="243" type="curve" smooth="yes"/>
      <point x="89" y="-10" type="line" smooth="yes"/>
    </contour>
    <contour>
      <point x="220" y="12"/>
      <point x="267" y="-12"/>
      <point x="328" y="-12" type="curve" smooth="yes"/>
      <point x="432" y="-12"/>
      <point x="522" y="77"/>
      <point x="522" y="223" type="curve" smooth="yes"/>
      <point x="522" y="372"/>
      <point x="443" y="455"/>
      <point x="344" y="455" type="curve" smooth="yes"/>
      <point x="282" y="455"/>
      <point x="229" y="425"/>
      <point x="182" y="363" type="curve"/>
      <point x="154" y="363" type="line"/>
      <point x="162" y="302" type="line"/>
      <point x="205" y="345"/>
      <point x="247" y="384"/>
      <point x="291" y="384" type="curve" smooth="yes"/>
      <point x="350" y="384"/>
      <point x="391" y="330"/>
      <point x="391" y="218" type="curve" smooth="yes"/>
      <point x="391" y="107"/>
      <point x="345" y="56"/>
      <point x="287" y="56" type="curve" smooth="yes"/>
      <point x="241" y="56"/>
      <point x="208" y="84"/>
      <point x="167" y="138" type="curve"/>
      <point x="159" y="77" type="line"/>
      <point x="181" y="77" type="line"/>
    </contour>
  </outline>
</glyph>
<glyph name="x" format="2">
  <advance width="499"/>
  <unicode hex="0078"/>
  <anchor x="255" y="471" name="aboveLC"/>
  <anchor x="235" y="-20" name="belowLC"/>
  <outline>
    <contour>
      <point x="9" y="0" type="line"/>
      <point x="186" y="0" type="line"/>
      <point x="186" y="39" type="line"/>
      <point x="115" y="52" type="line"/>
      <point x="88" y="52" type="line"/>
      <point x="9" y="39" type="line"/>
    </contour>
    <contour>
      <point x="33" y="0" type="line"/>
      <point x="99" y="0" type="line"/>
      <point x="264" y="238" type="line"/>
      <point x="229" y="259" type="line"/>
    </contour>
    <contour>
      <point x="240" y="0" type="line"/>
      <point x="490" y="0" type="line"/>
      <point x="490" y="39" type="line"/>
      <point x="388" y="57" type="line"/>
      <point x="355" y="57" type="line"/>
      <point x="240" y="39" type="line"/>
    </contour>
    <contour>
      <point x="271" y="195" type="line"/>
      <point x="460" y="441" type="line"/>
      <point x="394" y="441" type="line"/>
      <point x="239" y="218" type="line"/>
    </contour>
    <contour>
      <point x="322" y="0" type="line"/>
      <point x="465" y="0" type="line"/>
      <point x="292" y="265" type="line"/>
      <point x="177" y="441" type="line"/>
      <point x="37" y="441" type="line"/>
      <point x="201" y="186" type="line"/>
    </contour>
    <contour>
      <point x="12" y="402" type="line"/>
      <point x="109" y="388" type="line"/>
      <point x="165" y="388" type="line"/>
      <point x="253" y="402" type="line"/>
      <point x="253" y="441" type="line"/>
      <point x="12" y="441" type="line"/>
    </contour>
    <contour>
      <point x="310" y="402" type="line"/>
      <point x="377" y="389" type="line"/>
      <point x="403" y="389" type="line"/>
      <point x="475" y="402" type="line"/>
      <point x="475" y="441" type="line"/>
      <point x="310" y="441" type="line"/>
    </contour>
  </outline>
</glyph>
<glyph name="y" format="2">
  <advance width="484"/>
  <unicode hex="0079"/>
  <anchor x="262" y="471" name="aboveLC"/>
  <anchor x="126" y="-227" name="belowLC"/>
  <outline>
    <contour>
      <point x="92" y="-221" type="curve" smooth="yes"/>
      <point x="173" y="-221"/>
      <point x="218" y="-156"/>
      <point x="269" y="-23" type="curve" smooth="yes"/>
      <point x="448" y="441" type="line"/>
      <point x="391" y="441" type="line"/>
      <point x="264" y="84" type="line"/>
      <point x="221" y="-34" type="line" smooth="yes"/>
      <point x="199" y="-98"/>
      <point x="162" y="-151"/>
      <point x="113" y="-180" type="curve"/>
      <point x="140" y="-196" type="line"/>
      <point x="175" y="-180" type="line"/>
      <point x="147" y="-142" type="line" smooth="yes"/>
      <point x="122" y="-109"/>
      <point x="95" y="-102"/>
      <point x="71" y="-102" type="curve" smooth="yes"/>
      <point x="37" y="-102"/>
      <point x="7" y="-119"/>
      <point x="0" y="-154" type="curve"/>
      <point x="2" y="-193"/>
      <point x="44" y="-221"/>
    </contour>
    <contour>
      <point x="233" y="-55" type="line"/>
      <point x="291" y="84" type="line"/>
      <point x="285" y="103" type="line"/>
      <point x="161" y="441" type="line"/>
      <point x="26" y="441" type="line"/>
    </contour>
    <contour>
      <point x="0" y="403" type="line"/>
      <point x="85" y="390" type="line"/>
      <point x="156" y="390" type="line"/>
      <point x="247" y="403" type="line"/>
      <point x="247" y="441" type="line"/>
      <point x="0" y="441" type="line"/>
    </contour>
    <contour>
      <point x="306" y="403" type="line"/>
      <point x="390" y="390" type="line"/>
      <point x="408" y="390" type="line"/>
      <point x="482" y="403" type="line"/>
      <point x="482" y="441" type="line"/>
      <point x="306" y="441" type="line"/>
    </contour>
  </outline>
</glyph>
<glyph name="z" format="2">
  <advance width="424"/>
  <unicode hex="007A"/>
  <anchor x="224" y="471" name="aboveLC"/>
  <anchor x="224" y="-20" name="belowLC"/>
  <outline>
    <contour>
      <point x="20" y="0" type="line"/>
      <point x="399" y="0" type="line"/>
      <point x="408" y="152" type="line"/>
      <point x="342" y="152" type="line"/>
      <point x="309" y="14" type="line"/>
      <point x="343" y="41" type="line"/>
      <point x="134" y="41" type="line"/>
      <point x="147" y="18" type="line"/>
      <point x="397" y="407" type="line"/>
      <point x="397" y="441" type="line"/>
      <point x="33" y="441" type="line"/>
      <point x="25" y="302" type="line"/>
      <point x="91" y="299" type="line"/>
      <point x="122" y="427" type="line"/>
      <point x="88" y="401" type="line"/>
      <point x="288" y="401" type="line"/>
      <point x="276" y="424" type="line"/>
      <point x="20" y="34" type="line"/>
    </contour>
  </outline>
</glyph>
<glyph name="bar" format="2">
  <advance width="243"/>
  <unicode hex="007C"/>
  <outline>
    <contour>
      <point x="82" y="-230" type="line"/>
      <point x="161" y="-230" type="line"/>
      <point x="161" y="690" type="line"/>
      <point x="82" y="690" type="line"/>
    </contour>
  </outline>
</glyph>
<glyph name="asciitilde" format="2">
  <advance width="496"/>
  <unicode hex="007E"/>
  <outline>
    <contour>
      <point x="267" y="348" type="curve" smooth="yes"/>
      <point x="230" y="386"/>
      <point x="195" y="400"/>
      <point x="158" y="400" type="curve" smooth="yes"/>
      <point x="88" y="400"/>
      <point x="42" y="355"/>
      <point x="39" y="248" type="curve"/>
      <point x="102" y="241" type="line"/>
      <point x="107" y="307"/>
      <point x="128" y="327"/>
      <point x="153" y="327" type="curve" smooth="yes"/>
      <point x="175" y="327"/>
      <point x="195" y="319"/>
      <point x="228" y="286" type="curve" smooth="yes"/>
      <point x="265" y="248"/>
      <point x="299" y="234"/>
      <point x="338" y="234" type="curve" smooth="yes"/>
      <point x="405" y="234"/>
      <point x="454" y="277"/>
      <point x="457" y="386" type="curve"/>
      <point x="394" y="393" type="line"/>
      <point x="389" y="327"/>
      <point x="368" y="307"/>
      <point x="343" y="307" type="curve" smooth="yes"/>
      <point x="322" y="307"/>
      <point x="300" y="315"/>
    </contour>
  </outline>
</glyph>
<glyph name="yen" format="2">
  <advance width="485"/>
  <unicode hex="00A5"/>
  <outline>
    <contour>
      <point x="51" y="130" type="line"/>
      <point x="437" y="130" type="line"/>
      <point x="437" y="181" type="line"/>
      <point x="51" y="181" type="line"/>
    </contour>
    <contour>
      <point x="51" y="246" type="line"/>
      <point x="437" y="246" type="line"/>
      <point x="437" y="297" type="line"/>
      <point x="51" y="297" type="line"/>
    </contour>
    <contour>
      <point x="222" y="57" type="line"/>
      <point x="94" y="44" type="line"/>
      <point x="94" y="0" type="line"/>
      <point x="391" y="0" type="line"/>
      <point x="391" y="44" type="line"/>
      <point x="263" y="57" type="line"/>
    </contour>
    <contour>
      <point x="108" y="528" type="line"/>
      <point x="127" y="528" type="line"/>
      <point x="246" y="540" type="line"/>
      <point x="246" y="585" type="line"/>
      <point x="-6" y="585" type="line"/>
      <point x="-6" y="540" type="line"/>
    </contour>
    <contour>
      <point x="399" y="528" type="line"/>
      <point x="420" y="528" type="line"/>
      <point x="493" y="540" type="line"/>
      <point x="493" y="585" type="line"/>
      <point x="312" y="585" type="line"/>
      <point x="312" y="540" type="line"/>
    </contour>
    <contour>
      <point x="183" y="175" type="line" smooth="yes"/>
      <point x="183" y="118"/>
      <point x="183" y="78"/>
      <point x="180" y="0" type="curve"/>
      <point x="305" y="0" type="line"/>
      <point x="303" y="78"/>
      <point x="302" y="119"/>
      <point x="302" y="175" type="curve" smooth="yes"/>
      <point x="302" y="281" type="line"/>
      <point x="183" y="281" type="line"/>
    </contour>
    <contour>
      <point x="287" y="222" type="line"/>
      <point x="461" y="585" type="line"/>
      <point x="402" y="585" type="line"/>
      <point x="264" y="285" type="line"/>
      <point x="286" y="285" type="line"/>
      <point x="152" y="585" type="line"/>
      <point x="21" y="585" type="line"/>
      <point x="201" y="222" type="line"/>
    </contour>
  </outline>
</glyph>
<glyph name="section" format="2">
  <advance width="476"/>
  <unicode hex="00A7"/>
  <outline>
    <contour>
      <point x="253" y="623" type="curve" smooth="yes"/>
      <point x="135" y="623"/>
      <point x="75" y="555"/>
      <point x="75" y="483" type="curve" smooth="yes"/>
      <point x="75" y="412"/>
      <point x="119" y="360"/>
      <point x="236" y="316" type="curve" smooth="yes"/>
      <point x="318" y="286"/>
      <point x="358" y="264"/>
      <point x="358" y="212" type="curve" smooth="yes"/>
      <point x="358" y="183"/>
      <point x="341" y="151"/>
      <point x="316" y="134" type="curve"/>
      <point x="327" y="109" type="line"/>
      <point x="392" y="138"/>
      <point x="437" y="185"/>
      <point x="437" y="246" type="curve" smooth="yes"/>
      <point x="437" y="329"/>
      <point x="390" y="371"/>
      <point x="273" y="414" type="curve" smooth="yes"/>
      <point x="208" y="439"/>
      <point x="169" y="462"/>
      <point x="169" y="510" type="curve" smooth="yes"/>
      <point x="169" y="551"/>
      <point x="202" y="577"/>
      <point x="263" y="577" type="curve" smooth="yes"/>
      <point x="288" y="577"/>
      <point x="302" y="574"/>
      <point x="333" y="561" type="curve"/>
      <point x="277" y="592" type="line"/>
      <point x="300" y="534" type="line" smooth="yes"/>
      <point x="319" y="484"/>
      <point x="341" y="469"/>
      <point x="372" y="469" type="curve" smooth="yes"/>
      <point x="394" y="469"/>
      <point x="414" y="481"/>
      <point x="421" y="511" type="curve"/>
      <point x="421" y="575"/>
      <point x="355" y="623"/>
    </contour>
    <contour>
      <point x="222" y="-97" type="curve" smooth="yes"/>
      <point x="337" y="-97"/>
      <point x="401" y="-28"/>
      <point x="401" y="47" type="curve" smooth="yes"/>
      <point x="401" y="131"/>
      <point x="338" y="173"/>
      <point x="237" y="211" type="curve" smooth="yes"/>
      <point x="163" y="239"/>
      <point x="118" y="263"/>
      <point x="118" y="318" type="curve" smooth="yes"/>
      <point x="118" y="346"/>
      <point x="135" y="375"/>
      <point x="160" y="392" type="curve"/>
      <point x="149" y="416" type="line"/>
      <point x="80" y="387"/>
      <point x="40" y="334"/>
      <point x="40" y="277" type="curve" smooth="yes"/>
      <point x="40" y="194"/>
      <point x="94" y="155"/>
      <point x="193" y="115" type="curve" smooth="yes"/>
      <point x="272" y="82"/>
      <point x="308" y="64"/>
      <point x="308" y="20" type="curve" smooth="yes"/>
      <point x="308" y="-24"/>
      <point x="274" y="-51"/>
      <point x="213" y="-51" type="curve" smooth="yes"/>
      <point x="189" y="-51"/>
      <point x="176" y="-48"/>
      <point x="146" y="-35" type="curve"/>
      <point x="199" y="-66" type="line"/>
      <point x="176" y="-8" type="line" smooth="yes"/>
      <point x="158" y="41"/>
      <point x="135" y="56"/>
      <point x="103" y="56" type="curve" smooth="yes"/>
      <point x="82" y="56"/>
      <point x="62" y="45"/>
      <point x="55" y="14" type="curve"/>
      <point x="56" y="-49"/>
      <point x="121" y="-97"/>
    </contour>
  </outline>
</glyph>
<glyph name="copyright" format="2">
  <advance width="688"/>
  <unicode hex="00A9"/>
  <outline>
    <contour>
      <point x="80" y="305" type="curve" smooth="yes"/>
      <point x="80" y="474"/>
      <point x="199" y="579"/>
      <point x="344" y="579" type="curve" smooth="yes"/>
      <point x="490" y="579"/>
      <point x="608" y="473"/>
      <point x="608" y="305" type="curve" smooth="yes"/>
      <point x="608" y="136"/>
      <point x="490" y="28"/>
      <point x="344" y="28" type="curve" smooth="yes"/>
      <point x="199" y="28"/>
      <point x="80" y="136"/>
    </contour>
    <contour>
      <point x="27" y="305" type="curve" smooth="yes"/>
      <point x="27" y="108"/>
      <point x="172" y="-16"/>
      <point x="344" y="-16" type="curve" smooth="yes"/>
      <point x="517" y="-16"/>
      <point x="660" y="108"/>
      <point x="660" y="305" type="curve" smooth="yes"/>
      <point x="660" y="502"/>
      <point x="517" y="624"/>
      <point x="344" y="624" type="curve" smooth="yes"/>
      <point x="172" y="624"/>
      <point x="27" y="502"/>
    </contour>
    <contour>
      <point x="376" y="157" type="curve" smooth="yes"/>
      <point x="313" y="157"/>
      <point x="265" y="207"/>
      <point x="265" y="306" type="curve" smooth="yes"/>
      <point x="265" y="404"/>
      <point x="316" y="456"/>
      <point x="377" y="456" type="curve" smooth="yes"/>
      <point x="401" y="456"/>
      <point x="425" y="446"/>
      <point x="452" y="424" type="curve"/>
      <point x="411" y="469" type="line"/>
      <point x="428" y="380" type="line"/>
      <point x="471" y="380" type="line"/>
      <point x="469" y="468" type="line"/>
      <point x="436" y="487"/>
      <point x="405" y="494"/>
      <point x="363" y="494" type="curve" smooth="yes"/>
      <point x="261" y="494"/>
      <point x="174" y="425"/>
      <point x="174" y="305" type="curve" smooth="yes"/>
      <point x="174" y="186"/>
      <point x="255" y="116"/>
      <point x="361" y="116" type="curve" smooth="yes"/>
      <point x="404" y="116"/>
      <point x="442" y="127"/>
      <point x="472" y="144" type="curve"/>
      <point x="474" y="231" type="line"/>
      <point x="432" y="231" type="line"/>
      <point x="415" y="143" type="line"/>
      <point x="456" y="187" type="line"/>
      <point x="431" y="166"/>
      <point x="399" y="157"/>
    </contour>
  </outline>
</glyph>
<glyph name="guillemotleft" format="2">
  <advance width="487"/>
  <unicode hex="00AB"/>
  <outline>
    <contour>
      <point x="230" y="34" type="line"/>
      <point x="260" y="64" type="line"/>
      <point x="95" y="261" type="line"/>
      <point x="95" y="203" type="line"/>
      <point x="260" y="400" type="line"/>
      <point x="230" y="430" type="line"/>
      <point x="24" y="260" type="line"/>
      <point x="24" y="204" type="line"/>
    </contour>
    <contour>
      <point x="426" y="34" type="line"/>
      <point x="455" y="64" type="line"/>
      <point x="290" y="261" type="line"/>
      <point x="290" y="203" type="line"/>
      <point x="455" y="400" type="line"/>
      <point x="426" y="430" type="line"/>
      <point x="220" y="260" type="line"/>
      <point x="220" y="204" type="line"/>
    </contour>
  </outline>
</glyph>
<glyph name="logicalnot" format="2">
  <advance width="496"/>
  <unicode hex="00AC"/>
  <outline>
    <contour>
      <point x="24" y="300" type="line"/>
      <point x="420" y="300" type="line"/>
      <point x="391" y="331" type="line"/>
      <point x="391" y="137" type="line"/>
      <point x="467" y="137" type="line"/>
      <point x="467" y="372" type="line"/>
      <point x="24" y="372" type="line"/>
    </contour>
  </outline>
</glyph>
<glyph name="uni00AD" format="2">
  <advance width="303"/>
  <unicode hex="00AD"/>
  <outline>
    <contour>
      <point x="36" y="195" type="line"/>
      <point x="266" y="195" type="line"/>
      <point x="266" y="270" type="line"/>
      <point x="36" y="270" type="line"/>
    </contour>
  </outline>
</glyph>
<glyph name="macron" format="2">
  <advance width="368"/>
  <unicode hex="00AF"/>
  <anchor x="184" y="471" name="_aboveLC"/>
  <anchor x="184" y="625" name="aboveLC"/>
  <outline>
    <contour>
      <point x="46" y="542" type="line"/>
      <point x="322" y="542" type="line"/>
      <point x="322" y="616" type="line"/>
      <point x="46" y="616" type="line"/>
    </contour>
  </outline>
</glyph>
<glyph name="plusminus" format="2">
  <advance width="496"/>
  <unicode hex="00B1"/>
  <outline>
    <contour>
      <point x="210" y="103" type="line"/>
      <point x="286" y="103" type="line"/>
      <point x="286" y="517" type="line"/>
      <point x="210" y="517" type="line"/>
    </contour>
    <contour>
      <point x="469" y="276" type="line"/>
      <point x="469" y="348" type="line"/>
      <point x="26" y="348" type="line"/>
      <point x="26" y="276" type="line"/>
    </contour>
    <contour>
      <point x="469" y="0" type="line"/>
      <point x="469" y="71" type="line"/>
      <point x="26" y="71" type="line"/>
      <point x="26" y="0" type="line"/>
    </contour>
  </outline>
</glyph>
<glyph name="two.sups" format="2">
  <advance width="342"/>
  <unicode hex="00B2"/>
  <outline>
    <contour>
      <point x="43" y="382" type="line"/>
      <point x="302" y="382" type="line"/>
      <point x="302" y="457" type="line"/>
      <point x="86" y="457" type="line"/>
      <point x="84" y="430" type="line"/>
      <point x="160" y="488" type="line" smooth="yes"/>
      <point x="251" y="556"/>
      <point x="293" y="599"/>
      <point x="293" y="655" type="curve" smooth="yes"/>
      <point x="293" y="706"/>
      <point x="258" y="752"/>
      <point x="178" y="752" type="curve" smooth="yes"/>
      <point x="102" y="752"/>
      <point x="41" y="721"/>
      <point x="39" y="656" type="curve"/>
      <point x="46" y="642"/>
      <point x="59" y="632"/>
      <point x="76" y="632" type="curve" smooth="yes"/>
      <point x="94" y="632"/>
      <point x="111" y="643"/>
      <point x="117" y="681" type="curve" smooth="yes"/>
      <point x="128" y="735" type="line"/>
      <point x="86" y="709" type="line"/>
      <point x="108" y="718"/>
      <point x="125" y="721"/>
      <point x="142" y="721" type="curve" smooth="yes"/>
      <point x="181" y="721"/>
      <point x="205" y="696"/>
      <point x="205" y="651" type="curve" smooth="yes"/>
      <point x="205" y="600"/>
      <point x="177" y="563"/>
      <point x="123" y="510" type="curve" smooth="yes"/>
      <point x="43" y="433" type="line"/>
    </contour>
  </outline>
</glyph>
<glyph name="ordmasculine" format="2">
  <advance width="348"/>
  <unicode hex="00BA"/>
  <outline>
    <contour>
      <point x="173" y="649" type="curve" smooth="yes"/>
      <point x="218" y="649"/>
      <point x="241" y="610"/>
      <point x="241" y="528" type="curve" smooth="yes"/>
      <point x="241" y="443"/>
      <point x="218" y="405"/>
      <point x="173" y="405" type="curve" smooth="yes"/>
      <point x="129" y="405"/>
      <point x="105" y="443"/>
      <point x="105" y="528" type="curve" smooth="yes"/>
      <point x="105" y="610"/>
      <point x="129" y="649"/>
    </contour>
    <contour>
      <point x="173" y="681" type="curve" smooth="yes"/>
      <point x="91" y="681"/>
      <point x="21" y="622"/>
      <point x="21" y="528" type="curve" smooth="yes"/>
      <point x="21" y="433"/>
      <point x="86" y="373"/>
      <point x="173" y="373" type="curve" smooth="yes"/>
      <point x="261" y="373"/>
      <point x="327" y="432"/>
      <point x="327" y="528" type="curve" smooth="yes"/>
      <point x="327" y="623"/>
      <point x="256" y="681"/>
    </contour>
  </outline>
</glyph>
<glyph name="onehalf" format="2">
  <advance width="800"/>
  <unicode hex="00BD"/>
  <outline>
    <contour>
      <point x="208" y="-27" type="line"/>
      <point x="625" y="582" type="line"/>
      <point x="586" y="609" type="line"/>
      <point x="170" y="0" type="line"/>
    </contour>
    <contour>
      <point x="57" y="563" type="line"/>
      <point x="57" y="527" type="line"/>
      <point x="123" y="534" type="line"/>
      <point x="123" y="229" type="line"/>
      <point x="211" y="229" type="line"/>
      <point x="211" y="591" type="line"/>
      <point x="203" y="597" type="line"/>
    </contour>
    <contour>
      <point x="207" y="273" type="line"/>
      <point x="126" y="273" type="line"/>
      <point x="47" y="256" type="line"/>
      <point x="47" y="229" type="line"/>
      <point x="283" y="229" type="line"/>
      <point x="283" y="256" type="line"/>
    </contour>
    <contour>
      <point x="483" y="0" type="line"/>
      <point x="743" y="0" type="line"/>
      <point x="743" y="74" type="line"/>
      <point x="527" y="74" type="line"/>
      <point x="525" y="47" type="line"/>
      <point x="599" y="106" type="line" smooth="yes"/>
      <point x="691" y="173"/>
      <point x="733" y="217"/>
      <point x="733" y="272" type="curve" smooth="yes"/>
      <point x="733" y="323"/>
      <point x="698" y="369"/>
      <point x="618" y="369" type="curve" smooth="yes"/>
      <point x="541" y="369"/>
      <point x="482" y="338"/>
      <point x="479" y="273" type="curve"/>
      <point x="486" y="259"/>
      <point x="500" y="250"/>
      <point x="517" y="250" type="curve" smooth="yes"/>
      <point x="535" y="250"/>
      <point x="552" y="260"/>
      <point x="558" y="299" type="curve" smooth="yes"/>
      <point x="569" y="352" type="line"/>
      <point x="527" y="326" type="line"/>
      <point x="549" y="335"/>
      <point x="565" y="338"/>
      <point x="582" y="338" type="curve" smooth="yes"/>
      <point x="621" y="338"/>
      <point x="645" y="313"/>
      <point x="645" y="268" type="curve" smooth="yes"/>
      <point x="645" y="218"/>
      <point x="618" y="180"/>
      <point x="563" y="127" type="curve" smooth="yes"/>
      <point x="483" y="50" type="line"/>
    </contour>
  </outline>
</glyph>
<glyph name="threequarters" format="2">
  <advance width="800"/>
  <unicode hex="00BE"/>
  <outline>
    <contour>
      <point x="238" y="-32" type="line"/>
      <point x="655" y="577" type="line"/>
      <point x="616" y="605" type="line"/>
      <point x="199" y="-4" type="line"/>
    </contour>
    <contour>
      <point x="146" y="434" type="line"/>
      <point x="146" y="399" type="line"/>
      <point x="170" y="399" type="line" smooth="yes"/>
      <point x="221" y="399"/>
      <point x="247" y="373"/>
      <point x="247" y="328" type="curve" smooth="yes"/>
      <point x="247" y="276"/>
      <point x="218" y="250"/>
      <point x="167" y="250" type="curve" smooth="yes"/>
      <point x="150" y="250"/>
      <point x="139" y="253"/>
      <point x="123" y="258" type="curve"/>
      <point x="150" y="233" type="line"/>
      <point x="142" y="288" type="line" smooth="yes"/>
      <point x="137" y="327"/>
      <point x="122" y="337"/>
      <point x="101" y="337" type="curve" smooth="yes"/>
      <point x="87" y="337"/>
      <point x="72" y="331"/>
      <point x="65" y="311" type="curve"/>
      <point x="70" y="253"/>
      <point x="113" y="218"/>
      <point x="194" y="218" type="curve" smooth="yes"/>
      <point x="276" y="218"/>
      <point x="336" y="254"/>
      <point x="336" y="323" type="curve" smooth="yes"/>
      <point x="336" y="383"/>
      <point x="299" y="418"/>
      <point x="212" y="422" type="curve"/>
      <point x="216" y="414" type="line"/>
      <point x="287" y="419"/>
      <point x="322" y="460"/>
      <point x="322" y="506" type="curve" smooth="yes"/>
      <point x="322" y="560"/>
      <point x="279" y="598"/>
      <point x="198" y="598" type="curve" smooth="yes"/>
      <point x="137" y="598"/>
      <point x="83" y="570"/>
      <point x="80" y="507" type="curve"/>
      <point x="88" y="496"/>
      <point x="100" y="490"/>
      <point x="115" y="490" type="curve" smooth="yes"/>
      <point x="133" y="490"/>
      <point x="151" y="500"/>
      <point x="156" y="529" type="curve" smooth="yes"/>
      <point x="164" y="581" type="line"/>
      <point x="131" y="559" type="line"/>
      <point x="150" y="564"/>
      <point x="165" y="566"/>
      <point x="175" y="566" type="curve" smooth="yes"/>
      <point x="214" y="566"/>
      <point x="237" y="545"/>
      <point x="237" y="501" type="curve" smooth="yes"/>
      <point x="237" y="454"/>
      <point x="212" y="434"/>
      <point x="165" y="434" type="curve" smooth="yes"/>
    </contour>
    <contour>
      <point x="447" y="85" type="line"/>
      <point x="733" y="85" type="line"/>
      <point x="733" y="148" type="line"/>
      <point x="475" y="148" type="line"/>
      <point x="485" y="131" type="line"/>
      <point x="619" y="313" type="line"/>
      <point x="601" y="313" type="line"/>
      <point x="601" y="0" type="line"/>
      <point x="678" y="0" type="line"/>
      <point x="678" y="363" type="line"/>
      <point x="619" y="363" type="line"/>
      <point x="447" y="136" type="line"/>
    </contour>
  </outline>
</glyph>
<glyph name="Agrave" format="2">
  <advance width="617"/>
  <unicode hex="00C0"/>
  <anchor x="293" y="808" name="aboveUC"/>
  <anchor x="281" y="-20" name="belowLC"/>
  <anchor x="510" y="0" name="ogonek"/>
  <outline>
    <contour>
      <point x="7" y="0" type="line"/>
      <point x="208" y="0" type="line"/>
      <point x="208" y="45" type="line"/>
      <point x="117" y="58" type="line"/>
      <point x="100" y="58" type="line"/>
      <point x="7" y="45" type="line"/>
    </contour>
    <contour>
      <point x="62" y="0" type="line"/>
      <point x="113" y="0" type="line"/>
      <point x="272" y="481" type="line"/>
      <point x="428" y="0" type="line"/>
      <point x="563" y="0" type="line"/>
      <point x="355" y="609" type="line"/>
      <point x="272" y="609" type="line"/>
    </contour>
    <contour>
      <point x="155" y="184" type="line"/>
      <point x="437" y="184" type="line"/>
      <point x="419" y="233" type="line"/>
      <point x="171" y="233" type="line"/>
    </contour>
    <contour>
      <point x="333" y="0" type="line"/>
      <point x="606" y="0" type="line"/>
      <point x="606" y="44" type="line"/>
      <point x="489" y="57" type="line"/>
      <point x="441" y="57" type="line"/>
      <point x="333" y="44" type="line"/>
    </contour>
    <contour>
      <point x="369" y="678" type="line"/>
      <point x="337" y="711"/>
      <point x="304" y="742"/>
      <point x="272" y="772" type="curve" smooth="yes"/>
      <point x="244" y="800"/>
      <point x="227" y="808"/>
      <point x="207" y="808" type="curve" smooth="yes"/>
      <point x="183" y="808"/>
      <point x="163" y="789"/>
      <point x="163" y="767" type="curve" smooth="yes"/>
      <point x="163" y="749"/>
      <point x="172" y="728"/>
      <point x="214" y="709" type="curve" smooth="yes"/>
      <point x="258" y="688"/>
      <point x="302" y="667"/>
      <point x="347" y="646" type="curve"/>
    </contour>
  </outline>
</glyph>
<glyph name="Aacute" format="2">
  <advance width="617"/>
  <unicode hex="00C1"/>
  <anchor x="321" y="808" name="aboveUC"/>
  <anchor x="281" y="-20" name="belowLC"/>
  <anchor x="510" y="0" name="ogonek"/>
  <outline>
    <contour>
      <point x="7" y="0" type="line"/>
      <point x="208" y="0" type="line"/>
      <point x="208" y="45" type="line"/>
      <point x="117" y="58" type="line"/>
      <point x="100" y="58" type="line"/>
      <point x="7" y="45" type="line"/>
    </contour>
    <contour>
      <point x="62" y="0" type="line"/>
      <point x="113" y="0" type="line"/>
      <point x="272" y="481" type="line"/>
      <point x="428" y="0" type="line"/>
      <point x="563" y="0" type="line"/>
      <point x="355" y="609" type="line"/>
      <point x="272" y="609" type="line"/>
    </contour>
    <contour>
      <point x="155" y="184" type="line"/>
      <point x="437" y="184" type="line"/>
      <point x="419" y="233" type="line"/>
      <point x="171" y="233" type="line"/>
    </contour>
    <contour>
      <point x="333" y="0" type="line"/>
      <point x="606" y="0" type="line"/>
      <point x="606" y="44" type="line"/>
      <point x="489" y="57" type="line"/>
      <point x="441" y="57" type="line"/>
      <point x="333" y="44" type="line"/>
    </contour>
    <contour>
      <point x="245" y="678" type="curve"/>
      <point x="267" y="646" type="line"/>
      <point x="312" y="667"/>
      <point x="356" y="688"/>
      <point x="402" y="710" type="curve" smooth="yes"/>
      <point x="442" y="729"/>
      <point x="452" y="749"/>
      <point x="452" y="767" type="curve" smooth="yes"/>
      <point x="452" y="789"/>
      <point x="433" y="808"/>
      <point x="407" y="808" type="curve" smooth="yes"/>
      <point x="387" y="808"/>
      <point x="370" y="800"/>
      <point x="342" y="771" type="curve" smooth="yes"/>
      <point x="310" y="742"/>
      <point x="277" y="711"/>
    </contour>
  </outline>
</glyph>
<glyph name="Acircumflex" format="2">
  <advance width="617"/>
  <unicode hex="00C2"/>
  <anchor x="310" y="798" name="aboveUC"/>
  <anchor x="281" y="-20" name="belowLC"/>
  <anchor x="510" y="0" name="ogonek"/>
  <outline>
    <contour>
      <point x="7" y="0" type="line"/>
      <point x="208" y="0" type="line"/>
      <point x="208" y="45" type="line"/>
      <point x="117" y="58" type="line"/>
      <point x="100" y="58" type="line"/>
      <point x="7" y="45" type="line"/>
    </contour>
    <contour>
      <point x="62" y="0" type="line"/>
      <point x="113" y="0" type="line"/>
      <point x="272" y="481" type="line"/>
      <point x="428" y="0" type="line"/>
      <point x="563" y="0" type="line"/>
      <point x="355" y="609" type="line"/>
      <point x="272" y="609" type="line"/>
    </contour>
    <contour>
      <point x="155" y="184" type="line"/>
      <point x="437" y="184" type="line"/>
      <point x="419" y="233" type="line"/>
      <point x="171" y="233" type="line"/>
    </contour>
    <contour>
      <point x="333" y="0" type="line"/>
      <point x="606" y="0" type="line"/>
      <point x="606" y="44" type="line"/>
      <point x="489" y="57" type="line"/>
      <point x="441" y="57" type="line"/>
      <point x="333" y="44" type="line"/>
    </contour>
    <contour>
      <point x="336" y="789" type="line"/>
      <point x="284" y="789" type="line"/>
      <point x="152" y="660" type="line"/>
      <point x="176" y="631" type="line"/>
      <point x="352" y="730" type="line"/>
      <point x="268" y="730" type="line"/>
      <point x="444" y="631" type="line"/>
      <point x="468" y="660" type="line"/>
    </contour>
  </outline>
</glyph>
<glyph name="Atilde" format="2">
  <advance width="617"/>
  <unicode hex="00C3"/>
  <anchor x="309" y="801" name="aboveUC"/>
  <anchor x="281" y="-20" name="belowLC"/>
  <anchor x="510" y="0" name="ogonek"/>
  <outline>
    <contour>
      <point x="7" y="0" type="line"/>
      <point x="208" y="0" type="line"/>
      <point x="208" y="45" type="line"/>
      <point x="117" y="58" type="line"/>
      <point x="100" y="58" type="line"/>
      <point x="7" y="45" type="line"/>
    </contour>
    <contour>
      <point x="62" y="0" type="line"/>
      <point x="113" y="0" type="line"/>
      <point x="272" y="481" type="line"/>
      <point x="428" y="0" type="line"/>
      <point x="563" y="0" type="line"/>
      <point x="355" y="609" type="line"/>
      <point x="272" y="609" type="line"/>
    </contour>
    <contour>
      <point x="155" y="184" type="line"/>
      <point x="437" y="184" type="line"/>
      <point x="419" y="233" type="line"/>
      <point x="171" y="233" type="line"/>
    </contour>
    <contour>
      <point x="333" y="0" type="line"/>
      <point x="606" y="0" type="line"/>
      <point x="606" y="44" type="line"/>
      <point x="489" y="57" type="line"/>
      <point x="441" y="57" type="line"/>
      <point x="333" y="44" type="line"/>
    </contour>
    <contour>
      <point x="142" y="667" type="curve"/>
      <point x="177" y="653" type="line"/>
      <point x="190" y="690"/>
      <point x="209" y="713"/>
      <point x="237" y="713" type="curve" smooth="yes"/>
      <point x="262" y="713"/>
      <point x="281" y="693"/>
      <point x="302" y="678" type="curve" smooth="yes"/>
      <point x="322" y="666"/>
      <point x="345" y="653"/>
      <point x="374" y="653" type="curve" smooth="yes"/>
      <point x="428" y="653"/>
      <point x="465" y="700"/>
      <point x="475" y="778" type="curve"/>
      <point x="440" y="791" type="line"/>
      <point x="428" y="753"/>
      <point x="409" y="730"/>
      <point x="380" y="730" type="curve" smooth="yes"/>
      <point x="356" y="730"/>
      <point x="336" y="748"/>
      <point x="317" y="763" type="curve" smooth="yes"/>
      <point x="296" y="778"/>
      <point x="276" y="791"/>
      <point x="245" y="791" type="curve" smooth="yes"/>
      <point x="189" y="791"/>
      <point x="153" y="744"/>
    </contour>
  </outline>
</glyph>
<glyph name="AE" format="2">
  <advance width="828"/>
  <unicode hex="00C6"/>
  <anchor x="534" y="632" name="aboveUC"/>
  <outline>
    <contour>
      <point x="7" y="0" type="line"/>
      <point x="208" y="0" type="line"/>
      <point x="208" y="45" type="line"/>
      <point x="122" y="58" type="line"/>
      <point x="105" y="58" type="line"/>
      <point x="7" y="45" type="line"/>
    </contour>
    <contour>
      <point x="45" y="0" type="line"/>
      <point x="105" y="0" type="line"/>
      <point x="410" y="608" type="line"/>
      <point x="353" y="608" type="line"/>
    </contour>
    <contour>
      <point x="184" y="225" type="line"/>
      <point x="455" y="225" type="line"/>
      <point x="455" y="276" type="line"/>
      <point x="209" y="276" type="line"/>
    </contour>
    <contour>
      <point x="244" y="563" type="line"/>
      <point x="356" y="549" type="line"/>
      <point x="455" y="549" type="line"/>
      <point x="455" y="608" type="line"/>
      <point x="244" y="608" type="line"/>
    </contour>
    <contour>
      <point x="316" y="0" type="line"/>
      <point x="455" y="0" type="line"/>
      <point x="455" y="58" type="line"/>
      <point x="442" y="58" type="line"/>
      <point x="316" y="45" type="line"/>
    </contour>
    <contour>
      <point x="388" y="0" type="curve"/>
      <point x="522" y="0" type="line"/>
      <point x="519" y="94"/>
      <point x="519" y="190"/>
      <point x="519" y="291" type="curve" smooth="yes"/>
      <point x="519" y="322" type="line" smooth="yes"/>
      <point x="519" y="419"/>
      <point x="519" y="515"/>
      <point x="522" y="608" type="curve"/>
      <point x="391" y="608" type="line"/>
      <point x="391" y="253" type="line" smooth="yes"/>
      <point x="391" y="168"/>
      <point x="390" y="82"/>
    </contour>
    <contour>
      <point x="455" y="287" type="line"/>
      <point x="659" y="287" type="line"/>
      <point x="659" y="338" type="line"/>
      <point x="455" y="338" type="line"/>
    </contour>
    <contour>
      <point x="644" y="210" type="line"/>
      <point x="694" y="210" type="line"/>
      <point x="694" y="415" type="line"/>
      <point x="644" y="415" type="line"/>
      <point x="631" y="323" type="line"/>
      <point x="631" y="307" type="line"/>
    </contour>
    <contour>
      <point x="455" y="558" type="line"/>
      <point x="697" y="558" type="line"/>
      <point x="716" y="448" type="line"/>
      <point x="785" y="448" type="line"/>
      <point x="779" y="608" type="line"/>
      <point x="455" y="608" type="line"/>
    </contour>
    <contour>
      <point x="455" y="0" type="line"/>
      <point x="797" y="0" type="line"/>
      <point x="804" y="160" type="line"/>
      <point x="735" y="160" type="line"/>
      <point x="715" y="49" type="line"/>
      <point x="455" y="49" type="line"/>
    </contour>
  </outline>
</glyph>
<glyph name="Edieresis" format="2">
  <advance width="550"/>
  <unicode hex="00CB"/>
  <anchor x="290" y="793" name="aboveUC"/>
  <anchor x="310" y="-20" name="belowLC"/>
  <anchor x="429" y="0" name="ogonek"/>
  <outline>
    <contour>
      <point x="34" y="0" type="line"/>
      <point x="175" y="0" type="line"/>
      <point x="175" y="58" type="line"/>
      <point x="162" y="58" type="line"/>
      <point x="34" y="45" type="line"/>
    </contour>
    <contour>
      <point x="109" y="188"/>
      <point x="109" y="92"/>
      <point x="106" y="0" type="curve"/>
      <point x="244" y="0" type="line"/>
      <point x="241" y="94"/>
      <point x="241" y="190"/>
      <point x="241" y="291" type="curve" smooth="yes"/>
      <point x="241" y="322" type="line" smooth="yes"/>
      <point x="241" y="419"/>
      <point x="241" y="515"/>
      <point x="244" y="608" type="curve"/>
      <point x="106" y="608" type="line"/>
      <point x="109" y="513"/>
      <point x="109" y="417"/>
      <point x="109" y="322" type="curve" smooth="yes"/>
      <point x="109" y="285" type="line" smooth="yes"/>
    </contour>
    <contour>
      <point x="175" y="0" type="line"/>
      <point x="517" y="0" type="line"/>
      <point x="524" y="160" type="line"/>
      <point x="455" y="160" type="line"/>
      <point x="432" y="22" type="line"/>
      <point x="464" y="49" type="line"/>
      <point x="175" y="49" type="line"/>
    </contour>
    <contour>
      <point x="175" y="287" type="line"/>
      <point x="379" y="287" type="line"/>
      <point x="379" y="338" type="line"/>
      <point x="175" y="338" type="line"/>
    </contour>
    <contour>
      <point x="365" y="210" type="line"/>
      <point x="414" y="210" type="line"/>
      <point x="414" y="415" type="line"/>
      <point x="365" y="415" type="line"/>
      <point x="351" y="323" type="line"/>
      <point x="351" y="307" type="line"/>
    </contour>
    <contour>
      <point x="34" y="563" type="line"/>
      <point x="162" y="549" type="line"/>
      <point x="175" y="549" type="line"/>
      <point x="175" y="608" type="line"/>
      <point x="34" y="608" type="line"/>
    </contour>
    <contour>
      <point x="437" y="448" type="line"/>
      <point x="506" y="448" type="line"/>
      <point x="499" y="608" type="line"/>
      <point x="175" y="608" type="line"/>
      <point x="175" y="558" type="line"/>
      <point x="446" y="558" type="line"/>
      <point x="414" y="586" type="line"/>
    </contour>
    <contour>
      <point x="179" y="665" type="curve" smooth="yes"/>
      <point x="213" y="665"/>
      <point x="241" y="688"/>
      <point x="241" y="724" type="curve" smooth="yes"/>
      <point x="241" y="760"/>
      <point x="213" y="783"/>
      <point x="179" y="783" type="curve" smooth="yes"/>
      <point x="146" y="783"/>
      <point x="116" y="760"/>
      <point x="116" y="724" type="curve" smooth="yes"/>
      <point x="116" y="688"/>
      <point x="146" y="665"/>
    </contour>
    <contour>
      <point x="401" y="665" type="curve" smooth="yes"/>
      <point x="434" y="665"/>
      <point x="463" y="688"/>
      <point x="463" y="724" type="curve" smooth="yes"/>
      <point x="463" y="760"/>
      <point x="434" y="783"/>
      <point x="401" y="783" type="curve" smooth="yes"/>
      <point x="368" y="783"/>
      <point x="338" y="760"/>
      <point x="338" y="724" type="curve" smooth="yes"/>
      <point x="338" y="688"/>
      <point x="368" y="665"/>
    </contour>
  </outline>
</glyph>
<glyph name="Igrave" format="2">
  <advance width="351"/>
  <unicode hex="00CC"/>
  <anchor x="166" y="808" name="aboveUC"/>
  <anchor x="175" y="-20" name="belowLC"/>
  <anchor x="217" y="0" name="ogonek"/>
  <outline>
    <contour>
      <point x="34" y="0" type="line"/>
      <point x="318" y="0" type="line"/>
      <point x="318" y="45" type="line"/>
      <point x="186" y="58" type="line"/>
      <point x="162" y="58" type="line"/>
      <point x="34" y="45" type="line"/>
    </contour>
    <contour>
      <point x="109" y="188"/>
      <point x="109" y="92"/>
      <point x="106" y="0" type="curve"/>
      <point x="244" y="0" type="line"/>
      <point x="241" y="94"/>
      <point x="241" y="190"/>
      <point x="241" y="285" type="curve" smooth="yes"/>
      <point x="241" y="322" type="line" smooth="yes"/>
      <point x="241" y="419"/>
      <point x="241" y="515"/>
      <point x="244" y="608" type="curve"/>
      <point x="106" y="608" type="line"/>
      <point x="109" y="513"/>
      <point x="109" y="417"/>
      <point x="109" y="322" type="curve" smooth="yes"/>
      <point x="109" y="285" type="line" smooth="yes"/>
    </contour>
    <contour>
      <point x="34" y="563" type="line"/>
      <point x="162" y="549" type="line"/>
      <point x="186" y="549" type="line"/>
      <point x="318" y="563" type="line"/>
      <point x="318" y="608" type="line"/>
      <point x="34" y="608" type="line"/>
    </contour>
    <contour>
      <point x="241" y="678" type="line"/>
      <point x="210" y="711"/>
      <point x="177" y="742"/>
      <point x="145" y="772" type="curve" smooth="yes"/>
      <point x="116" y="800"/>
      <point x="100" y="808"/>
      <point x="80" y="808" type="curve" smooth="yes"/>
      <point x="55" y="808"/>
      <point x="35" y="789"/>
      <point x="35" y="767" type="curve" smooth="yes"/>
      <point x="35" y="749"/>
      <point x="45" y="728"/>
      <point x="86" y="709" type="curve" smooth="yes"/>
      <point x="131" y="688"/>
      <point x="175" y="667"/>
      <point x="219" y="646" type="curve"/>
    </contour>
  </outline>
</glyph>
<glyph name="Iacute" format="2">
  <advance width="351"/>
  <unicode hex="00CD"/>
  <anchor x="194" y="808" name="aboveUC"/>
  <anchor x="175" y="-20" name="belowLC"/>
  <anchor x="217" y="0" name="ogonek"/>
  <outline>
    <contour>
      <point x="34" y="0" type="line"/>
      <point x="318" y="0" type="line"/>
      <point x="318" y="45" type="line"/>
      <point x="186" y="58" type="line"/>
      <point x="162" y="58" type="line"/>
      <point x="34" y="45" type="line"/>
    </contour>
    <contour>
      <point x="109" y="188"/>
      <point x="109" y="92"/>
      <point x="106" y="0" type="curve"/>
      <point x="244" y="0" type="line"/>
      <point x="241" y="94"/>
      <point x="241" y="190"/>
      <point x="241" y="285" type="curve" smooth="yes"/>
      <point x="241" y="322" type="line" smooth="yes"/>
      <point x="241" y="419"/>
      <point x="241" y="515"/>
      <point x="244" y="608" type="curve"/>
      <point x="106" y="608" type="line"/>
      <point x="109" y="513"/>
      <point x="109" y="417"/>
      <point x="109" y="322" type="curve" smooth="yes"/>
      <point x="109" y="285" type="line" smooth="yes"/>
    </contour>
    <contour>
      <point x="34" y="563" type="line"/>
      <point x="162" y="549" type="line"/>
      <point x="186" y="549" type="line"/>
      <point x="318" y="563" type="line"/>
      <point x="318" y="608" type="line"/>
      <point x="34" y="608" type="line"/>
    </contour>
    <contour>
      <point x="118" y="678" type="curve"/>
      <point x="140" y="646" type="line"/>
      <point x="185" y="667"/>
      <point x="230" y="688"/>
      <point x="275" y="710" type="curve" smooth="yes"/>
      <point x="315" y="729"/>
      <point x="324" y="749"/>
      <point x="324" y="767" type="curve" smooth="yes"/>
      <point x="324" y="789"/>
      <point x="305" y="808"/>
      <point x="279" y="808" type="curve" smooth="yes"/>
      <point x="260" y="808"/>
      <point x="242" y="800"/>
      <point x="214" y="771" type="curve" smooth="yes"/>
      <point x="184" y="742"/>
      <point x="150" y="711"/>
    </contour>
  </outline>
</glyph>
<glyph name="Idieresis" format="2">
  <advance width="351"/>
  <unicode hex="00CF"/>
  <anchor x="175" y="632" name="aboveUC"/>
  <anchor x="175" y="-20" name="belowLC"/>
  <anchor x="217" y="0" name="ogonek"/>
  <outline>
    <contour>
      <point x="88" y="665" type="curve" smooth="yes"/>
      <point x="120" y="665"/>
      <point x="148" y="688"/>
      <point x="148" y="724" type="curve" smooth="yes"/>
      <point x="148" y="760"/>
      <point x="120" y="783"/>
      <point x="88" y="783" type="curve" smooth="yes"/>
      <point x="56" y="783"/>
      <point x="27" y="760"/>
      <point x="27" y="724" type="curve" smooth="yes"/>
      <point x="27" y="688"/>
      <point x="56" y="665"/>
    </contour>
    <contour>
      <point x="264" y="665" type="curve" smooth="yes"/>
      <point x="295" y="665"/>
      <point x="323" y="688"/>
      <point x="323" y="724" type="curve" smooth="yes"/>
      <point x="323" y="760"/>
      <point x="295" y="783"/>
      <point x="264" y="783" type="curve" smooth="yes"/>
      <point x="230" y="783"/>
      <point x="204" y="760"/>
      <point x="204" y="724" type="curve" smooth="yes"/>
      <point x="204" y="688"/>
      <point x="230" y="665"/>
    </contour>
    <contour>
      <point x="34" y="0" type="line"/>
      <point x="318" y="0" type="line"/>
      <point x="318" y="45" type="line"/>
      <point x="186" y="58" type="line"/>
      <point x="162" y="58" type="line"/>
      <point x="34" y="45" type="line"/>
    </contour>
    <contour>
      <point x="109" y="188"/>
      <point x="109" y="92"/>
      <point x="106" y="0" type="curve"/>
      <point x="244" y="0" type="line"/>
      <point x="241" y="94"/>
      <point x="241" y="190"/>
      <point x="241" y="285" type="curve" smooth="yes"/>
      <point x="241" y="322" type="line" smooth="yes"/>
      <point x="241" y="419"/>
      <point x="241" y="515"/>
      <point x="244" y="608" type="curve"/>
      <point x="106" y="608" type="line"/>
      <point x="109" y="513"/>
      <point x="109" y="417"/>
      <point x="109" y="322" type="curve" smooth="yes"/>
      <point x="109" y="285" type="line" smooth="yes"/>
    </contour>
    <contour>
      <point x="34" y="563" type="line"/>
      <point x="162" y="549" type="line"/>
      <point x="186" y="549" type="line"/>
      <point x="318" y="563" type="line"/>
      <point x="318" y="608" type="line"/>
      <point x="34" y="608" type="line"/>
    </contour>
  </outline>
</glyph>
<glyph name="Ntilde" format="2">
  <advance width="671"/>
  <unicode hex="00D1"/>
  <anchor x="339" y="796" name="aboveUC"/>
  <anchor x="348" y="-20" name="belowLC"/>
  <outline>
    <contour>
      <point x="29" y="0" type="line"/>
      <point x="264" y="0" type="line"/>
      <point x="264" y="45" type="line"/>
      <point x="150" y="58" type="line"/>
      <point x="126" y="58" type="line"/>
      <point x="29" y="45" type="line"/>
    </contour>
    <contour>
      <point x="107" y="0" type="line"/>
      <point x="162" y="0" type="line"/>
      <point x="162" y="584" type="line"/>
      <point x="107" y="584" type="line"/>
    </contour>
    <contour>
      <point x="406" y="563" type="line"/>
      <point x="525" y="549" type="line"/>
      <point x="549" y="549" type="line"/>
      <point x="642" y="563" type="line"/>
      <point x="642" y="608" type="line"/>
      <point x="406" y="608" type="line"/>
    </contour>
    <contour>
      <point x="501" y="-2" type="line"/>
      <point x="563" y="-2" type="line"/>
      <point x="563" y="608" type="line"/>
      <point x="508" y="608" type="line"/>
      <point x="508" y="207" type="line"/>
      <point x="218" y="608" type="line"/>
      <point x="32" y="608" type="line"/>
      <point x="32" y="562" type="line"/>
      <point x="95" y="555" type="line"/>
    </contour>
    <contour>
      <point x="173" y="662" type="curve"/>
      <point x="207" y="648" type="line"/>
      <point x="221" y="686"/>
      <point x="240" y="709"/>
      <point x="267" y="709" type="curve" smooth="yes"/>
      <point x="293" y="709"/>
      <point x="312" y="689"/>
      <point x="333" y="674" type="curve" smooth="yes"/>
      <point x="353" y="660"/>
      <point x="376" y="648"/>
      <point x="405" y="648" type="curve" smooth="yes"/>
      <point x="460" y="648"/>
      <point x="495" y="695"/>
      <point x="506" y="773" type="curve"/>
      <point x="471" y="786" type="line"/>
      <point x="459" y="748"/>
      <point x="440" y="725"/>
      <point x="411" y="725" type="curve" smooth="yes"/>
      <point x="387" y="725"/>
      <point x="368" y="745"/>
      <point x="348" y="758" type="curve" smooth="yes"/>
      <point x="327" y="773"/>
      <point x="306" y="786"/>
      <point x="276" y="786" type="curve" smooth="yes"/>
      <point x="220" y="786"/>
      <point x="184" y="740"/>
    </contour>
  </outline>
</glyph>
<glyph name="Ocircumflex" format="2">
  <advance width="646"/>
  <unicode hex="00D4"/>
  <anchor x="323" y="807" name="aboveUC"/>
  <anchor x="323" y="-20" name="belowLC"/>
  <anchor x="459" y="609" name="hornLC"/>
  <anchor x="406" y="0" name="ogonek"/>
  <outline>
    <contour>
      <point x="323" y="-16" type="curve" smooth="yes"/>
      <point x="472" y="-16"/>
      <point x="611" y="95"/>
      <point x="611" y="304" type="curve" smooth="yes"/>
      <point x="611" y="517"/>
      <point x="471" y="624"/>
      <point x="323" y="624" type="curve" smooth="yes"/>
      <point x="175" y="624"/>
      <point x="34" y="513"/>
      <point x="34" y="304" type="curve" smooth="yes"/>
      <point x="34" y="91"/>
      <point x="174" y="-16"/>
    </contour>
    <contour>
      <point x="323" y="34" type="curve" smooth="yes"/>
      <point x="219" y="34"/>
      <point x="176" y="155"/>
      <point x="176" y="304" type="curve" smooth="yes"/>
      <point x="176" y="451"/>
      <point x="219" y="573"/>
      <point x="323" y="573" type="curve" smooth="yes"/>
      <point x="427" y="573"/>
      <point x="470" y="451"/>
      <point x="470" y="304" type="curve" smooth="yes"/>
      <point x="470" y="155"/>
      <point x="427" y="34"/>
    </contour>
    <contour>
      <point x="349" y="798" type="line"/>
      <point x="298" y="798" type="line"/>
      <point x="166" y="670" type="line"/>
      <point x="190" y="641" type="line"/>
      <point x="366" y="738" type="line"/>
      <point x="281" y="738" type="line"/>
      <point x="457" y="641" type="line"/>
      <point x="481" y="670" type="line"/>
    </contour>
  </outline>
</glyph>
<glyph name="multiply" format="2">
  <advance width="496"/>
  <unicode hex="00D7"/>
  <outline>
    <contour>
      <point x="407" y="87" type="line"/>
      <point x="460" y="139" type="line"/>
      <point x="88" y="510" type="line"/>
      <point x="36" y="459" type="line"/>
    </contour>
    <contour>
      <point x="460" y="459" type="line"/>
      <point x="407" y="510" type="line"/>
      <point x="36" y="139" type="line"/>
      <point x="88" y="87" type="line"/>
    </contour>
  </outline>
</glyph>
<glyph name="Ugrave" format="2">
  <advance width="671"/>
  <unicode hex="00D9"/>
  <anchor x="345" y="804" name="aboveUC"/>
  <anchor x="348" y="-20" name="belowLC"/>
  <anchor x="552" y="625" name="hornLC"/>
  <anchor x="416" y="0" name="ogonek"/>
  <outline>
    <contour>
      <point x="101" y="53"/>
      <point x="197" y="-16"/>
      <point x="333" y="-16" type="curve" smooth="yes"/>
      <point x="475" y="-16"/>
      <point x="567" y="62"/>
      <point x="567" y="257" type="curve" smooth="yes"/>
      <point x="567" y="608" type="line"/>
      <point x="511" y="608" type="line"/>
      <point x="511" y="264" type="line" smooth="yes"/>
      <point x="511" y="117"/>
      <point x="460" y="61"/>
      <point x="371" y="61" type="curve" smooth="yes"/>
      <point x="282" y="61"/>
      <point x="233" y="111"/>
      <point x="233" y="258" type="curve" smooth="yes"/>
      <point x="233" y="329" type="line" smooth="yes"/>
      <point x="233" y="423"/>
      <point x="233" y="517"/>
      <point x="236" y="608" type="curve"/>
      <point x="98" y="608" type="line"/>
      <point x="101" y="515"/>
      <point x="101" y="421"/>
      <point x="101" y="329" type="curve" smooth="yes"/>
      <point x="101" y="229" type="line" smooth="yes"/>
    </contour>
    <contour>
      <point x="29" y="563" type="line"/>
      <point x="161" y="549" type="line"/>
      <point x="185" y="549" type="line"/>
      <point x="316" y="563" type="line"/>
      <point x="316" y="608" type="line"/>
      <point x="29" y="608" type="line"/>
    </contour>
    <contour>
      <point x="425" y="563" type="line"/>
      <point x="524" y="552" type="line"/>
      <point x="548" y="552" type="line"/>
      <point x="644" y="563" type="line"/>
      <point x="644" y="608" type="line"/>
      <point x="425" y="608" type="line"/>
    </contour>
    <contour>
      <point x="419" y="673" type="line"/>
      <point x="388" y="705"/>
      <point x="355" y="737"/>
      <point x="323" y="768" type="curve" smooth="yes"/>
      <point x="295" y="795"/>
      <point x="278" y="804"/>
      <point x="258" y="804" type="curve" smooth="yes"/>
      <point x="232" y="804"/>
      <point x="213" y="784"/>
      <point x="213" y="762" type="curve" smooth="yes"/>
      <point x="213" y="745"/>
      <point x="222" y="724"/>
      <point x="264" y="704" type="curve" smooth="yes"/>
      <point x="309" y="683"/>
      <point x="354" y="662"/>
      <point x="397" y="642" type="curve"/>
    </contour>
  </outline>
</glyph>
<glyph name="Yacute" format="2">
  <advance width="576"/>
  <unicode hex="00DD"/>
  <anchor x="351" y="804" name="aboveUC"/>
  <anchor x="287" y="-20" name="belowLC"/>
  <outline>
    <contour>
      <point x="138" y="0" type="line"/>
      <point x="441" y="0" type="line"/>
      <point x="441" y="45" type="line"/>
      <point x="306" y="58" type="line"/>
      <point x="272" y="58" type="line"/>
      <point x="138" y="45" type="line"/>
    </contour>
    <contour>
      <point x="221" y="0" type="curve"/>
      <point x="358" y="0" type="line"/>
      <point x="356" y="83"/>
      <point x="356" y="153"/>
      <point x="356" y="281" type="curve"/>
      <point x="224" y="281" type="line"/>
      <point x="224" y="152"/>
      <point x="224" y="81"/>
    </contour>
    <contour>
      <point x="241" y="200" type="line"/>
      <point x="329" y="200" type="line"/>
      <point x="529" y="608" type="line"/>
      <point x="471" y="608" type="line"/>
      <point x="314" y="272" type="line"/>
      <point x="345" y="275" type="line"/>
      <point x="193" y="608" type="line"/>
      <point x="42" y="608" type="line"/>
    </contour>
    <contour>
      <point x="9" y="563" type="line"/>
      <point x="142" y="549" type="line"/>
      <point x="175" y="549" type="line"/>
      <point x="293" y="563" type="line"/>
      <point x="293" y="608" type="line"/>
      <point x="9" y="608" type="line"/>
    </contour>
    <contour>
      <point x="375" y="563" type="line"/>
      <point x="467" y="549" type="line"/>
      <point x="486" y="549" type="line"/>
      <point x="572" y="563" type="line"/>
      <point x="572" y="608" type="line"/>
      <point x="375" y="608" type="line"/>
    </contour>
    <contour>
      <point x="276" y="673" type="curve"/>
      <point x="298" y="642" type="line"/>
      <point x="342" y="663"/>
      <point x="387" y="683"/>
      <point x="432" y="705" type="curve" smooth="yes"/>
      <point x="472" y="724"/>
      <point x="482" y="745"/>
      <point x="482" y="762" type="curve" smooth="yes"/>
      <point x="482" y="784"/>
      <point x="462" y="804"/>
      <point x="437" y="804" type="curve" smooth="yes"/>
      <point x="417" y="804"/>
      <point x="400" y="795"/>
      <point x="371" y="767" type="curve" smooth="yes"/>
      <point x="341" y="737"/>
      <point x="308" y="706"/>
    </contour>
  </outline>
</glyph>
<glyph name="Thorn" format="2">
  <advance width="568"/>
  <unicode hex="00DE"/>
  <outline>
    <contour>
      <point x="160" y="549" type="line"/>
      <point x="191" y="549" type="line"/>
      <point x="322" y="563" type="line"/>
      <point x="322" y="608" type="line"/>
      <point x="34" y="608" type="line"/>
      <point x="34" y="563" type="line"/>
    </contour>
    <contour>
      <point x="162" y="58" type="line"/>
      <point x="34" y="45" type="line"/>
      <point x="34" y="0" type="line"/>
      <point x="322" y="0" type="line"/>
      <point x="322" y="45" type="line"/>
      <point x="197" y="58" type="line"/>
    </contour>
    <contour>
      <point x="109" y="285" type="line" smooth="yes"/>
      <point x="109" y="188"/>
      <point x="109" y="92"/>
      <point x="106" y="0" type="curve"/>
      <point x="241" y="0" type="line"/>
      <point x="240" y="93"/>
      <point x="239" y="192"/>
      <point x="239" y="285" type="curve" smooth="yes"/>
      <point x="239" y="323" type="line" smooth="yes"/>
      <point x="239" y="419"/>
      <point x="240" y="515"/>
      <point x="241" y="608" type="curve"/>
      <point x="106" y="608" type="line"/>
      <point x="109" y="513"/>
      <point x="109" y="417"/>
      <point x="109" y="322" type="curve" smooth="yes"/>
    </contour>
    <contour>
      <point x="550" y="316" type="curve" smooth="yes"/>
      <point x="550" y="425"/>
      <point x="474" y="492"/>
      <point x="291" y="492" type="curve" smooth="yes"/>
      <point x="177" y="492" type="line"/>
      <point x="177" y="442" type="line"/>
      <point x="284" y="442" type="line" smooth="yes"/>
      <point x="379" y="442"/>
      <point x="423" y="396"/>
      <point x="423" y="314" type="curve" smooth="yes"/>
      <point x="423" y="236"/>
      <point x="374" y="183"/>
      <point x="284" y="183" type="curve" smooth="yes"/>
      <point x="177" y="183" type="line"/>
      <point x="177" y="133" type="line"/>
      <point x="276" y="133" type="line" smooth="yes"/>
      <point x="491" y="133"/>
      <point x="550" y="216"/>
    </contour>
  </outline>
</glyph>
<glyph name="ae" format="2">
  <advance width="724"/>
  <unicode hex="00E6"/>
  <anchor x="368" y="471" name="aboveLC"/>
  <anchor x="347" y="-20" name="belowLC"/>
  <outline>
    <contour>
      <point x="150" y="125" type="curve" smooth="yes"/>
      <point x="150" y="162"/>
      <point x="172" y="193"/>
      <point x="227" y="215" type="curve" smooth="yes"/>
      <point x="253" y="227"/>
      <point x="303" y="241"/>
      <point x="346" y="252" type="curve"/>
      <point x="346" y="288" type="line"/>
      <point x="302" y="279"/>
      <point x="240" y="262"/>
      <point x="202" y="250" type="curve" smooth="yes"/>
      <point x="66" y="208"/>
      <point x="33" y="165"/>
      <point x="33" y="104" type="curve" smooth="yes"/>
      <point x="33" y="28"/>
      <point x="83" y="-12"/>
      <point x="159" y="-12" type="curve" smooth="yes"/>
      <point x="225" y="-12"/>
      <point x="272" y="8"/>
      <point x="341" y="93" type="curve"/>
      <point x="319" y="115" type="line"/>
      <point x="264" y="66"/>
      <point x="247" y="56"/>
      <point x="213" y="56" type="curve" smooth="yes"/>
      <point x="180" y="56"/>
      <point x="150" y="76"/>
    </contour>
    <contour>
      <point x="501" y="-12" type="curve" smooth="yes"/>
      <point x="588" y="-12"/>
      <point x="652" y="23"/>
      <point x="689" y="93" type="curve"/>
      <point x="660" y="119" type="line"/>
      <point x="631" y="87"/>
      <point x="596" y="65"/>
      <point x="543" y="65" type="curve" smooth="yes"/>
      <point x="467" y="65"/>
      <point x="410" y="119"/>
      <point x="410" y="230" type="curve" smooth="yes"/>
      <point x="410" y="365"/>
      <point x="456" y="410"/>
      <point x="499" y="410" type="curve" smooth="yes"/>
      <point x="541" y="410"/>
      <point x="575" y="374"/>
      <point x="575" y="316" type="curve" smooth="yes"/>
      <point x="575" y="279"/>
      <point x="563" y="262"/>
      <point x="520" y="262" type="curve" smooth="yes"/>
      <point x="335" y="262" type="line"/>
      <point x="335" y="217" type="line"/>
      <point x="687" y="217" type="line"/>
      <point x="690" y="230"/>
      <point x="692" y="246"/>
      <point x="692" y="266" type="curve" smooth="yes"/>
      <point x="692" y="378"/>
      <point x="621" y="455"/>
      <point x="507" y="455" type="curve" smooth="yes"/>
      <point x="445" y="455"/>
      <point x="384" y="425"/>
      <point x="344" y="368" type="curve"/>
      <point x="320" y="357" type="line"/>
      <point x="295" y="321"/>
      <point x="280" y="274"/>
      <point x="280" y="219" type="curve" smooth="yes"/>
      <point x="280" y="73"/>
      <point x="371" y="-12"/>
    </contour>
    <contour>
      <point x="397" y="294" type="line" smooth="yes"/>
      <point x="397" y="409"/>
      <point x="341" y="455"/>
      <point x="247" y="455" type="curve" smooth="yes"/>
      <point x="127" y="455"/>
      <point x="55" y="404"/>
      <point x="46" y="330" type="curve"/>
      <point x="52" y="302"/>
      <point x="71" y="286"/>
      <point x="102" y="286" type="curve" smooth="yes"/>
      <point x="134" y="286"/>
      <point x="160" y="308"/>
      <point x="163" y="358" type="curve" smooth="yes"/>
      <point x="175" y="427" type="line"/>
      <point x="120" y="395" type="line"/>
      <point x="158" y="407"/>
      <point x="184" y="410"/>
      <point x="207" y="410" type="curve" smooth="yes"/>
      <point x="264" y="410"/>
      <point x="283" y="385"/>
      <point x="283" y="301" type="curve" smooth="yes"/>
      <point x="283" y="215" type="line"/>
      <point x="397" y="215" type="line"/>
    </contour>
  </outline>
</glyph>
<glyph name="ccedilla" format="2">
  <advance width="463"/>
  <unicode hex="00E7"/>
  <anchor x="260" y="471" name="aboveLC"/>
  <anchor x="257" y="0" name="baseLC"/>
  <anchor x="257" y="-20" name="belowLC"/>
  <outline>
    <contour>
      <point x="30" y="69"/>
      <point x="126" y="-12"/>
      <point x="252" y="-12" type="curve" smooth="yes"/>
      <point x="338" y="-12"/>
      <point x="402" y="24"/>
      <point x="434" y="99" type="curve"/>
      <point x="405" y="122" type="line"/>
      <point x="379" y="87"/>
      <point x="341" y="65"/>
      <point x="294" y="65" type="curve" smooth="yes"/>
      <point x="213" y="65"/>
      <point x="159" y="125"/>
      <point x="159" y="233" type="curve" smooth="yes"/>
      <point x="159" y="356"/>
      <point x="217" y="410"/>
      <point x="277" y="410" type="curve" smooth="yes"/>
      <point x="306" y="410"/>
      <point x="333" y="403"/>
      <point x="362" y="389" type="curve"/>
      <point x="302" y="425" type="line"/>
      <point x="316" y="355" type="line" smooth="yes"/>
      <point x="321" y="303"/>
      <point x="345" y="282"/>
      <point x="379" y="282" type="curve" smooth="yes"/>
      <point x="409" y="282"/>
      <point x="426" y="296"/>
      <point x="435" y="325" type="curve"/>
      <point x="426" y="397"/>
      <point x="358" y="455"/>
      <point x="266" y="455" type="curve" smooth="yes"/>
      <point x="138" y="455"/>
      <point x="30" y="368"/>
      <point x="30" y="219" type="curve" smooth="yes"/>
    </contour>
    <contour>
      <point x="215" y="-80" type="line"/>
      <point x="255" y="-85"/>
      <point x="276" y="-98"/>
      <point x="276" y="-126" type="curve" smooth="yes"/>
      <point x="276" y="-148"/>
      <point x="260" y="-162"/>
      <point x="226" y="-162" type="curve" smooth="yes"/>
      <point x="209" y="-162"/>
      <point x="195" y="-161"/>
      <point x="178" y="-157" type="curve"/>
      <point x="170" y="-194" type="line"/>
      <point x="187" y="-201"/>
      <point x="208" y="-206"/>
      <point x="237" y="-206" type="curve" smooth="yes"/>
      <point x="314" y="-206"/>
      <point x="354" y="-172"/>
      <point x="354" y="-126" type="curve" smooth="yes"/>
      <point x="354" y="-81"/>
      <point x="313" y="-51"/>
      <point x="236" y="-46" type="curve"/>
      <point x="262" y="-68" type="line"/>
      <point x="271" y="3" type="line"/>
      <point x="227" y="3" type="line"/>
    </contour>
  </outline>
</glyph>
<glyph name="icircumflex" format="2">
  <advance width="285"/>
  <unicode hex="00EE"/>
  <anchor x="148" y="690" name="aboveLC"/>
  <anchor x="147" y="-20" name="belowLC"/>
  <anchor x="179" y="0" name="ogonek"/>
  <outline>
    <contour>
      <point x="83" y="0" type="curve"/>
      <point x="212" y="0" type="line"/>
      <point x="210" y="41"/>
      <point x="209" y="136"/>
      <point x="209" y="193" type="curve" smooth="yes"/>
      <point x="209" y="314" type="line"/>
      <point x="212" y="446" type="line"/>
      <point x="197" y="455" type="line"/>
      <point x="22" y="396" type="line"/>
      <point x="22" y="360" type="line"/>
      <point x="83" y="352" type="line"/>
      <point x="85" y="315"/>
      <point x="86" y="287"/>
      <point x="86" y="236" type="curve" smooth="yes"/>
      <point x="86" y="193" type="line" smooth="yes"/>
      <point x="86" y="136"/>
      <point x="85" y="41"/>
    </contour>
    <contour>
      <point x="28" y="0" type="line"/>
      <point x="263" y="0" type="line"/>
      <point x="263" y="39" type="line"/>
      <point x="172" y="57" type="line"/>
      <point x="118" y="57" type="line"/>
      <point x="28" y="39" type="line"/>
    </contour>
    <contour>
      <point x="269" y="501" type="line"/>
      <point x="298" y="529" type="line"/>
      <point x="172" y="690" type="line"/>
      <point x="124" y="690" type="line"/>
      <point x="0" y="529" type="line"/>
      <point x="27" y="501" type="line"/>
      <point x="190" y="633" type="line"/>
      <point x="105" y="633" type="line"/>
    </contour>
  </outline>
</glyph>
<glyph name="idieresis" format="2">
  <advance width="285"/>
  <unicode hex="00EF"/>
  <anchor x="143" y="471" name="aboveLC"/>
  <anchor x="147" y="-20" name="belowLC"/>
  <anchor x="179" y="0" name="ogonek"/>
  <outline>
    <contour>
      <point x="55" y="535" type="curve" smooth="yes"/>
      <point x="90" y="535"/>
      <point x="120" y="559"/>
      <point x="120" y="597" type="curve" smooth="yes"/>
      <point x="120" y="634"/>
      <point x="90" y="659"/>
      <point x="55" y="659" type="curve" smooth="yes"/>
      <point x="20" y="659"/>
      <point x="-10" y="634"/>
      <point x="-10" y="597" type="curve" smooth="yes"/>
      <point x="-10" y="559"/>
      <point x="20" y="535"/>
    </contour>
    <contour>
      <point x="234" y="535" type="curve" smooth="yes"/>
      <point x="269" y="535"/>
      <point x="299" y="559"/>
      <point x="299" y="597" type="curve" smooth="yes"/>
      <point x="299" y="634"/>
      <point x="269" y="659"/>
      <point x="234" y="659" type="curve" smooth="yes"/>
      <point x="200" y="659"/>
      <point x="168" y="634"/>
      <point x="168" y="597" type="curve" smooth="yes"/>
      <point x="168" y="559"/>
      <point x="200" y="535"/>
    </contour>
    <contour>
      <point x="83" y="0" type="curve"/>
      <point x="212" y="0" type="line"/>
      <point x="210" y="41"/>
      <point x="209" y="136"/>
      <point x="209" y="193" type="curve" smooth="yes"/>
      <point x="209" y="314" type="line"/>
      <point x="212" y="446" type="line"/>
      <point x="197" y="455" type="line"/>
      <point x="22" y="396" type="line"/>
      <point x="22" y="360" type="line"/>
      <point x="83" y="352" type="line"/>
      <point x="85" y="315"/>
      <point x="86" y="287"/>
      <point x="86" y="236" type="curve" smooth="yes"/>
      <point x="86" y="193" type="line" smooth="yes"/>
      <point x="86" y="136"/>
      <point x="85" y="41"/>
    </contour>
    <contour>
      <point x="28" y="0" type="line"/>
      <point x="263" y="0" type="line"/>
      <point x="263" y="39" type="line"/>
      <point x="172" y="57" type="line"/>
      <point x="118" y="57" type="line"/>
      <point x="28" y="39" type="line"/>
    </contour>
  </outline>
</glyph>
<glyph name="ograve" format="2">
  <advance width="515"/>
  <unicode hex="00F2"/>
  <anchor x="248" y="690" name="aboveLC"/>
  <anchor x="256" y="-20" name="belowLC"/>
  <anchor x="372" y="445" name="hornLC"/>
  <anchor x="329" y="0" name="ogonek"/>
  <outline>
    <contour>
      <point x="257" y="-12" type="curve" smooth="yes"/>
      <point x="388" y="-12"/>
      <point x="483" y="75"/>
      <point x="483" y="221" type="curve" smooth="yes"/>
      <point x="483" y="368"/>
      <point x="379" y="455"/>
      <point x="257" y="455" type="curve" smooth="yes"/>
      <point x="134" y="455"/>
      <point x="31" y="366"/>
      <point x="31" y="221" type="curve" smooth="yes"/>
      <point x="31" y="76"/>
      <point x="126" y="-12"/>
    </contour>
    <contour>
      <point x="257" y="33" type="curve" smooth="yes"/>
      <point x="195" y="33"/>
      <point x="164" y="92"/>
      <point x="164" y="219" type="curve" smooth="yes"/>
      <point x="164" y="348"/>
      <point x="195" y="409"/>
      <point x="257" y="409" type="curve" smooth="yes"/>
      <point x="317" y="409"/>
      <point x="350" y="348"/>
      <point x="350" y="219" type="curve" smooth="yes"/>
      <point x="350" y="92"/>
      <point x="317" y="33"/>
    </contour>
    <contour>
      <point x="304" y="534" type="line"/>
      <point x="285" y="568"/>
      <point x="264" y="600"/>
      <point x="229" y="657" type="curve" smooth="yes"/>
      <point x="207" y="694"/>
      <point x="190" y="708"/>
      <point x="164" y="708" type="curve" smooth="yes"/>
      <point x="141" y="708"/>
      <point x="119" y="692"/>
      <point x="119" y="662" type="curve" smooth="yes"/>
      <point x="119" y="640"/>
      <point x="136" y="621"/>
      <point x="168" y="595" type="curve" smooth="yes"/>
      <point x="217" y="556"/>
      <point x="245" y="533"/>
      <point x="273" y="509" type="curve"/>
    </contour>
  </outline>
</glyph>
<glyph name="otilde" format="2">
  <advance width="515"/>
  <unicode hex="00F5"/>
  <anchor x="257" y="675" name="aboveLC"/>
  <anchor x="256" y="-20" name="belowLC"/>
  <anchor x="372" y="445" name="hornLC"/>
  <anchor x="329" y="0" name="ogonek"/>
  <outline>
    <contour>
      <point x="257" y="-12" type="curve" smooth="yes"/>
      <point x="388" y="-12"/>
      <point x="483" y="75"/>
      <point x="483" y="221" type="curve" smooth="yes"/>
      <point x="483" y="368"/>
      <point x="379" y="455"/>
      <point x="257" y="455" type="curve" smooth="yes"/>
      <point x="134" y="455"/>
      <point x="31" y="366"/>
      <point x="31" y="221" type="curve" smooth="yes"/>
      <point x="31" y="76"/>
      <point x="126" y="-12"/>
    </contour>
    <contour>
      <point x="257" y="33" type="curve" smooth="yes"/>
      <point x="195" y="33"/>
      <point x="164" y="92"/>
      <point x="164" y="219" type="curve" smooth="yes"/>
      <point x="164" y="348"/>
      <point x="195" y="409"/>
      <point x="257" y="409" type="curve" smooth="yes"/>
      <point x="317" y="409"/>
      <point x="350" y="348"/>
      <point x="350" y="219" type="curve" smooth="yes"/>
      <point x="350" y="92"/>
      <point x="317" y="33"/>
    </contour>
    <contour>
      <point x="99" y="540" type="curve"/>
      <point x="132" y="527" type="line"/>
      <point x="144" y="564"/>
      <point x="161" y="587"/>
      <point x="188" y="587" type="curve" smooth="yes"/>
      <point x="212" y="587"/>
      <point x="230" y="568"/>
      <point x="250" y="552" type="curve" smooth="yes"/>
      <point x="269" y="538"/>
      <point x="291" y="526"/>
      <point x="319" y="526" type="curve" smooth="yes"/>
      <point x="370" y="526"/>
      <point x="405" y="574"/>
      <point x="415" y="651" type="curve"/>
      <point x="382" y="665" type="line"/>
      <point x="370" y="627"/>
      <point x="352" y="604"/>
      <point x="325" y="604" type="curve" smooth="yes"/>
      <point x="302" y="604"/>
      <point x="286" y="621"/>
      <point x="264" y="638" type="curve" smooth="yes"/>
      <point x="246" y="652"/>
      <point x="225" y="665"/>
      <point x="196" y="665" type="curve" smooth="yes"/>
      <point x="144" y="665"/>
      <point x="109" y="618"/>
    </contour>
  </outline>
</glyph>
<glyph name="divide" format="2">
  <advance width="496"/>
  <unicode hex="00F7"/>
  <outline>
    <contour>
      <point x="248" y="61" type="curve" smooth="yes"/>
      <point x="285" y="61"/>
      <point x="314" y="87"/>
      <point x="314" y="124" type="curve" smooth="yes"/>
      <point x="314" y="161"/>
      <point x="285" y="188"/>
      <point x="248" y="188" type="curve" smooth="yes"/>
      <point x="211" y="188"/>
      <point x="182" y="161"/>
      <point x="182" y="124" type="curve" smooth="yes"/>
      <point x="182" y="87"/>
      <point x="211" y="61"/>
    </contour>
    <contour>
      <point x="248" y="409" type="curve" smooth="yes"/>
      <point x="285" y="409"/>
      <point x="314" y="437"/>
      <point x="314" y="472" type="curve" smooth="yes"/>
      <point x="314" y="509"/>
      <point x="285" y="537"/>
      <point x="248" y="537" type="curve" smooth="yes"/>
      <point x="211" y="537"/>
      <point x="182" y="509"/>
      <point x="182" y="472" type="curve" smooth="yes"/>
      <point x="182" y="437"/>
      <point x="211" y="409"/>
    </contour>
    <contour>
      <point x="469" y="263" type="line"/>
      <point x="469" y="334" type="line"/>
      <point x="26" y="334" type="line"/>
      <point x="26" y="263" type="line"/>
    </contour>
  </outline>
</glyph>
<glyph name="oslash" format="2">
  <advance width="515"/>
  <unicode hex="00F8"/>
  <anchor x="257" y="471" name="aboveLC"/>
  <outline>
    <contour>
      <point x="462" y="440" type="line"/>
      <point x="425" y="471" type="line"/>
      <point x="49" y="3" type="line"/>
      <point x="88" y="-27" type="line"/>
    </contour>
    <contour>
      <point x="257" y="-12" type="curve" smooth="yes"/>
      <point x="388" y="-12"/>
      <point x="483" y="75"/>
      <point x="483" y="221" type="curve" smooth="yes"/>
      <point x="483" y="368"/>
      <point x="379" y="455"/>
      <point x="257" y="455" type="curve" smooth="yes"/>
      <point x="134" y="455"/>
      <point x="31" y="366"/>
      <point x="31" y="221" type="curve" smooth="yes"/>
      <point x="31" y="76"/>
      <point x="126" y="-12"/>
    </contour>
    <contour>
      <point x="257" y="33" type="curve" smooth="yes"/>
      <point x="191" y="33"/>
      <point x="157" y="92"/>
      <point x="157" y="219" type="curve" smooth="yes"/>
      <point x="157" y="348"/>
      <point x="191" y="409"/>
      <point x="257" y="409" type="curve" smooth="yes"/>
      <point x="322" y="409"/>
      <point x="357" y="348"/>
      <point x="357" y="219" type="curve" smooth="yes"/>
      <point x="357" y="92"/>
      <point x="322" y="33"/>
    </contour>
  </outline>
</glyph>
<glyph name="udieresis" format="2">
  <advance width="551"/>
  <unicode hex="00FC"/>
  <anchor x="279" y="648" name="aboveLC"/>
  <anchor x="282" y="-20" name="belowLC"/>
  <anchor x="457" y="430" name="hornLC"/>
  <anchor x="460" y="0" name="ogonek"/>
  <outline>
    <contour>
      <point x="71" y="31"/>
      <point x="122" y="-12"/>
      <point x="199" y="-12" type="curve" smooth="yes"/>
      <point x="269" y="-12"/>
      <point x="330" y="27"/>
      <point x="376" y="103" type="curve"/>
      <point x="392" y="103" type="line"/>
      <point x="374" y="141" type="line"/>
      <point x="340" y="100"/>
      <point x="295" y="68"/>
      <point x="255" y="68" type="curve" smooth="yes"/>
      <point x="218" y="68"/>
      <point x="197" y="89"/>
      <point x="197" y="154" type="curve" smooth="yes"/>
      <point x="197" y="310" type="line"/>
      <point x="202" y="439" type="line"/>
      <point x="189" y="449" type="line"/>
      <point x="19" y="427" type="line"/>
      <point x="19" y="391" type="line"/>
      <point x="103" y="372" type="line"/>
      <point x="76" y="398" type="line"/>
      <point x="73" y="152" type="line" smooth="yes"/>
    </contour>
    <contour>
      <point x="360" y="-9" type="line"/>
      <point x="528" y="0" type="line"/>
      <point x="528" y="39" type="line"/>
      <point x="475" y="50" type="line"/>
      <point x="475" y="310" type="line"/>
      <point x="478" y="439" type="line"/>
      <point x="465" y="449" type="line"/>
      <point x="299" y="425" type="line"/>
      <point x="299" y="391" type="line"/>
      <point x="354" y="379" type="line"/>
      <point x="351" y="99" type="line"/>
    </contour>
    <contour>
      <point x="174" y="535" type="curve" smooth="yes"/>
      <point x="209" y="535"/>
      <point x="240" y="559"/>
      <point x="240" y="597" type="curve" smooth="yes"/>
      <point x="240" y="634"/>
      <point x="209" y="659"/>
      <point x="174" y="659" type="curve" smooth="yes"/>
      <point x="139" y="659"/>
      <point x="109" y="634"/>
      <point x="109" y="597" type="curve" smooth="yes"/>
      <point x="109" y="559"/>
      <point x="139" y="535"/>
    </contour>
    <contour>
      <point x="385" y="535" type="curve" smooth="yes"/>
      <point x="421" y="535"/>
      <point x="450" y="559"/>
      <point x="450" y="597" type="curve" smooth="yes"/>
      <point x="450" y="634"/>
      <point x="421" y="659"/>
      <point x="385" y="659" type="curve" smooth="yes"/>
      <point x="351" y="659"/>
      <point x="320" y="634"/>
      <point x="320" y="597" type="curve" smooth="yes"/>
      <point x="320" y="559"/>
      <point x="351" y="535"/>
    </contour>
  </outline>
</glyph>
<glyph name="OE" format="2">
  <advance width="858"/>
  <unicode hex="0152"/>
  <anchor x="472" y="632" name="aboveUC"/>
  <outline>
    <contour>
      <point x="176" y="304" type="curve" smooth="yes"/>
      <point x="176" y="457"/>
      <point x="236" y="573"/>
      <point x="367" y="573" type="curve" smooth="yes"/>
      <point x="408" y="573"/>
      <point x="441" y="567"/>
      <point x="480" y="548" type="curve"/>
      <point x="480" y="608" type="line"/>
      <point x="438" y="618"/>
      <point x="395" y="624"/>
      <point x="356" y="624" type="curve" smooth="yes"/>
      <point x="180" y="624"/>
      <point x="34" y="517"/>
      <point x="34" y="304" type="curve" smooth="yes"/>
      <point x="34" y="91"/>
      <point x="180" y="-16"/>
      <point x="356" y="-16" type="curve" smooth="yes"/>
      <point x="397" y="-16"/>
      <point x="439" y="-9"/>
      <point x="480" y="0" type="curve"/>
      <point x="480" y="59" type="line"/>
      <point x="441" y="40"/>
      <point x="409" y="34"/>
      <point x="367" y="34" type="curve" smooth="yes"/>
      <point x="236" y="34"/>
      <point x="176" y="151"/>
    </contour>
    <contour>
      <point x="417" y="285" type="line" smooth="yes"/>
      <point x="417" y="188"/>
      <point x="417" y="92"/>
      <point x="414" y="0" type="curve"/>
      <point x="552" y="0" type="line"/>
      <point x="550" y="94"/>
      <point x="550" y="190"/>
      <point x="550" y="291" type="curve" smooth="yes"/>
      <point x="550" y="322" type="line" smooth="yes"/>
      <point x="550" y="419"/>
      <point x="550" y="515"/>
      <point x="552" y="608" type="curve"/>
      <point x="414" y="608" type="line"/>
      <point x="417" y="513"/>
      <point x="417" y="417"/>
      <point x="417" y="322" type="curve" smooth="yes"/>
    </contour>
    <contour>
      <point x="658" y="307" type="line"/>
      <point x="672" y="210" type="line"/>
      <point x="722" y="210" type="line"/>
      <point x="722" y="415" type="line"/>
      <point x="672" y="415" type="line"/>
      <point x="658" y="323" type="line"/>
    </contour>
    <contour>
      <point x="688" y="338" type="line"/>
      <point x="484" y="338" type="line"/>
      <point x="484" y="287" type="line"/>
      <point x="688" y="287" type="line"/>
    </contour>
    <contour>
      <point x="745" y="448" type="line"/>
      <point x="814" y="448" type="line"/>
      <point x="807" y="608" type="line"/>
      <point x="484" y="608" type="line"/>
      <point x="484" y="558" type="line"/>
      <point x="725" y="558" type="line"/>
    </contour>
    <contour>
      <point x="763" y="160" type="line"/>
      <point x="744" y="49" type="line"/>
      <point x="484" y="49" type="line"/>
      <point x="484" y="0" type="line"/>
      <point x="826" y="0" type="line"/>
      <point x="832" y="160" type="line"/>
    </contour>
  </outline>
</glyph>
<glyph name="oe" format="2">
  <advance width="792"/>
  <unicode hex="0153"/>
  <anchor x="412" y="471" name="aboveLC"/>
  <outline>
    <contour>
      <point x="257" y="409" type="curve" smooth="yes"/>
      <point x="318" y="409"/>
      <point x="350" y="347"/>
      <point x="350" y="218" type="curve" smooth="yes"/>
      <point x="350" y="91"/>
      <point x="318" y="33"/>
      <point x="257" y="33" type="curve" smooth="yes"/>
      <point x="195" y="33"/>
      <point x="164" y="92"/>
      <point x="164" y="220" type="curve" smooth="yes"/>
      <point x="164" y="348"/>
      <point x="195" y="409"/>
    </contour>
    <contour>
      <point x="448" y="113" type="curve"/>
      <point x="381" y="113" type="line"/>
      <point x="415" y="33"/>
      <point x="480" y="-12"/>
      <point x="570" y="-12" type="curve" smooth="yes"/>
      <point x="655" y="-12"/>
      <point x="720" y="22"/>
      <point x="758" y="93" type="curve"/>
      <point x="729" y="119" type="line"/>
      <point x="701" y="89"/>
      <point x="664" y="65"/>
      <point x="611" y="65" type="curve" smooth="yes"/>
      <point x="536" y="65"/>
      <point x="479" y="119"/>
      <point x="479" y="230" type="curve" smooth="yes"/>
      <point x="479" y="365"/>
      <point x="525" y="410"/>
      <point x="568" y="410" type="curve" smooth="yes"/>
      <point x="611" y="410"/>
      <point x="644" y="374"/>
      <point x="644" y="316" type="curve" smooth="yes"/>
      <point x="644" y="278"/>
      <point x="632" y="262"/>
      <point x="588" y="262" type="curve" smooth="yes"/>
      <point x="402" y="262" type="line"/>
      <point x="402" y="217" type="line"/>
      <point x="756" y="217" type="line"/>
      <point x="759" y="230"/>
      <point x="760" y="246"/>
      <point x="760" y="266" type="curve" smooth="yes"/>
      <point x="760" y="378"/>
      <point x="690" y="455"/>
      <point x="576" y="455" type="curve" smooth="yes"/>
      <point x="501" y="455"/>
      <point x="424" y="410"/>
      <point x="389" y="336" type="curve"/>
      <point x="445" y="336" type="line"/>
      <point x="412" y="410"/>
      <point x="335" y="455"/>
      <point x="257" y="455" type="curve" smooth="yes"/>
      <point x="134" y="455"/>
      <point x="31" y="367"/>
      <point x="31" y="221" type="curve" smooth="yes"/>
      <point x="31" y="77"/>
      <point x="126" y="-12"/>
      <point x="257" y="-12" type="curve" smooth="yes"/>
      <point x="343" y="-12"/>
      <point x="414" y="34"/>
    </contour>
  </outline>
</glyph>
<glyph name="scaron" format="2">
  <advance width="412"/>
  <unicode hex="0161"/>
  <anchor x="215" y="688" name="aboveLC"/>
  <anchor x="204" y="0" name="baseLC"/>
  <anchor x="206" y="-20" name="belowLC"/>
  <outline>
    <contour>
      <point x="186" y="-12" type="curve" smooth="yes"/>
      <point x="312" y="-12"/>
      <point x="385" y="45"/>
      <point x="385" y="133" type="curve" smooth="yes"/>
      <point x="385" y="196"/>
      <point x="350" y="243"/>
      <point x="261" y="272" type="curve" smooth="yes"/>
      <point x="221" y="284" type="line" smooth="yes"/>
      <point x="159" y="304"/>
      <point x="142" y="322"/>
      <point x="142" y="352" type="curve" smooth="yes"/>
      <point x="142" y="387"/>
      <point x="170" y="407"/>
      <point x="216" y="407" type="curve" smooth="yes"/>
      <point x="255" y="407"/>
      <point x="278" y="398"/>
      <point x="310" y="376" type="curve"/>
      <point x="310" y="406" type="line"/>
      <point x="264" y="426" type="line"/>
      <point x="288" y="320" type="line"/>
      <point x="354" y="320" type="line"/>
      <point x="359" y="417" type="line"/>
      <point x="314" y="441"/>
      <point x="272" y="455"/>
      <point x="219" y="455" type="curve" smooth="yes"/>
      <point x="102" y="455"/>
      <point x="37" y="391"/>
      <point x="37" y="311" type="curve" smooth="yes"/>
      <point x="37" y="244"/>
      <point x="79" y="201"/>
      <point x="149" y="179" type="curve" smooth="yes"/>
      <point x="196" y="164" type="line" smooth="yes"/>
      <point x="256" y="145"/>
      <point x="276" y="126"/>
      <point x="276" y="93" type="curve" smooth="yes"/>
      <point x="276" y="55"/>
      <point x="245" y="34"/>
      <point x="187" y="34" type="curve" smooth="yes"/>
      <point x="143" y="34"/>
      <point x="110" y="46"/>
      <point x="72" y="71" type="curve"/>
      <point x="72" y="35" type="line"/>
      <point x="122" y="17" type="line"/>
      <point x="100" y="135" type="line"/>
      <point x="34" y="135" type="line"/>
      <point x="34" y="26" type="line"/>
      <point x="81" y="0"/>
      <point x="128" y="-12"/>
    </contour>
    <contour>
      <point x="103" y="697" type="line"/>
      <point x="72" y="671" type="line"/>
      <point x="177" y="521" type="line"/>
      <point x="253" y="521" type="line"/>
      <point x="356" y="671" type="line"/>
      <point x="325" y="697" type="line"/>
      <point x="174" y="567" type="line"/>
      <point x="253" y="567" type="line"/>
    </contour>
  </outline>
</glyph>
<glyph name="zcaron" format="2">
  <advance width="424"/>
  <unicode hex="017E"/>
  <anchor x="234" y="688" name="aboveLC"/>
  <anchor x="224" y="-20" name="belowLC"/>
  <outline>
    <contour>
      <point x="20" y="0" type="line"/>
      <point x="399" y="0" type="line"/>
      <point x="408" y="152" type="line"/>
      <point x="342" y="152" type="line"/>
      <point x="309" y="14" type="line"/>
      <point x="343" y="41" type="line"/>
      <point x="134" y="41" type="line"/>
      <point x="147" y="18" type="line"/>
      <point x="397" y="407" type="line"/>
      <point x="397" y="441" type="line"/>
      <point x="33" y="441" type="line"/>
      <point x="25" y="302" type="line"/>
      <point x="91" y="299" type="line"/>
      <point x="122" y="427" type="line"/>
      <point x="88" y="401" type="line"/>
      <point x="288" y="401" type="line"/>
      <point x="276" y="424" type="line"/>
      <point x="20" y="34" type="line"/>
    </contour>
    <contour>
      <point x="124" y="697" type="line"/>
      <point x="92" y="671" type="line"/>
      <point x="196" y="521" type="line"/>
      <point x="272" y="521" type="line"/>
      <point x="377" y="671" type="line"/>
      <point x="345" y="697" type="line"/>
      <point x="195" y="567" type="line"/>
      <point x="274" y="567" type="line"/>
    </contour>
  </outline>
</glyph>
<glyph name="breve" format="2">
  <advance width="368"/>
  <unicode hex="02D8"/>
  <anchor x="184" y="471" name="_aboveLC"/>
  <anchor x="184" y="677" name="aboveLC"/>
  <outline>
    <contour>
      <point x="38" y="665" type="line"/>
      <point x="45" y="598"/>
      <point x="85" y="523"/>
      <point x="184" y="523" type="curve" smooth="yes"/>
      <point x="282" y="523"/>
      <point x="322" y="598"/>
      <point x="329" y="665" type="curve"/>
      <point x="290" y="677" type="line"/>
      <point x="272" y="632"/>
      <point x="240" y="594"/>
      <point x="184" y="594" type="curve" smooth="yes"/>
      <point x="127" y="594"/>
      <point x="96" y="631"/>
      <point x="77" y="677" type="curve"/>
    </contour>
  </outline>
</glyph>
<glyph name="hungarumlaut" format="2">
  <advance width="368"/>
  <unicode hex="02DD"/>
  <anchor x="166" y="471" name="_aboveLC"/>
  <anchor x="166" y="714" name="aboveLC"/>
  <outline>
    <contour>
      <point x="63" y="525" type="line"/>
      <point x="97" y="506" type="line"/>
      <point x="180" y="615" type="line" smooth="yes"/>
      <point x="200" y="642"/>
      <point x="207" y="659"/>
      <point x="207" y="675" type="curve" smooth="yes"/>
      <point x="207" y="699"/>
      <point x="191" y="714"/>
      <point x="169" y="714" type="curve" smooth="yes"/>
      <point x="144" y="714"/>
      <point x="122" y="700"/>
      <point x="108" y="655" type="curve" smooth="yes"/>
    </contour>
    <contour>
      <point x="196" y="527" type="line"/>
      <point x="230" y="506" type="line"/>
      <point x="315" y="614" type="line" smooth="yes"/>
      <point x="335" y="640"/>
      <point x="343" y="658"/>
      <point x="343" y="675" type="curve" smooth="yes"/>
      <point x="343" y="698"/>
      <point x="327" y="713"/>
      <point x="303" y="713" type="curve" smooth="yes"/>
      <point x="280" y="713"/>
      <point x="259" y="701"/>
      <point x="243" y="656" type="curve" smooth="yes"/>
    </contour>
  </outline>
</glyph>
<glyph name="emdash" format="2">
  <advance width="763"/>
  <unicode hex="2014"/>
  <outline>
    <contour>
      <point x="36" y="195" type="line"/>
      <point x="726" y="195" type="line"/>
      <point x="726" y="270" type="line"/>
      <point x="36" y="270" type="line"/>
    </contour>
  </outline>
</glyph>
<glyph name="quotedblbase" format="2">
  <advance width="391"/>
  <unicode hex="201E"/>
  <outline>
    <contour>
      <point x="171" y="47" type="curve" smooth="yes"/>
      <point x="171" y="73"/>
      <point x="165" y="98"/>
      <point x="153" y="120" type="curve"/>
      <point x="138" y="133"/>
      <point x="120" y="142"/>
      <point x="96" y="142" type="curve" smooth="yes"/>
      <point x="60" y="142"/>
      <point x="31" y="117"/>
      <point x="31" y="79" type="curve" smooth="yes"/>
      <point x="31" y="54"/>
      <point x="39" y="32"/>
      <point x="67" y="11" type="curve" smooth="yes"/>
      <point x="120" y="-30" type="line"/>
      <point x="120" y="27" type="line"/>
      <point x="103" y="-35"/>
      <point x="63" y="-79"/>
      <point x="17" y="-110" type="curve"/>
      <point x="34" y="-141" type="line"/>
      <point x="113" y="-103"/>
      <point x="171" y="-32"/>
    </contour>
    <contour>
      <point x="364" y="47" type="curve" smooth="yes"/>
      <point x="364" y="73"/>
      <point x="358" y="98"/>
      <point x="346" y="120" type="curve"/>
      <point x="332" y="133"/>
      <point x="313" y="142"/>
      <point x="289" y="142" type="curve" smooth="yes"/>
      <point x="253" y="142"/>
      <point x="224" y="117"/>
      <point x="224" y="79" type="curve" smooth="yes"/>
      <point x="224" y="54"/>
      <point x="232" y="32"/>
      <point x="260" y="11" type="curve" smooth="yes"/>
      <point x="313" y="-30" type="line"/>
      <point x="313" y="27" type="line"/>
      <point x="297" y="-35"/>
      <point x="256" y="-79"/>
      <point x="210" y="-110" type="curve"/>
      <point x="227" y="-141" type="line"/>
      <point x="306" y="-103"/>
      <point x="364" y="-32"/>
    </contour>
  </outline>
</glyph>
<glyph name="ellipsis" format="2">
  <advance width="828"/>
  <unicode hex="2026"/>
  <outline>
    <contour>
      <point x="138" y="-12" type="curve" smooth="yes"/>
      <point x="181" y="-12"/>
      <point x="215" y="21"/>
      <point x="215" y="63" type="curve" smooth="yes"/>
      <point x="215" y="105"/>
      <point x="181" y="140"/>
      <point x="138" y="140" type="curve" smooth="yes"/>
      <point x="94" y="140"/>
      <point x="60" y="105"/>
      <point x="60" y="63" type="curve" smooth="yes"/>
      <point x="60" y="21"/>
      <point x="94" y="-12"/>
    </contour>
    <contour>
      <point x="414" y="-12" type="curve" smooth="yes"/>
      <point x="457" y="-12"/>
      <point x="491" y="21"/>
      <point x="491" y="63" type="curve" smooth="yes"/>
      <point x="491" y="105"/>
      <point x="457" y="140"/>
      <point x="414" y="140" type="curve" smooth="yes"/>
      <point x="370" y="140"/>
      <point x="336" y="105"/>
      <point x="336" y="63" type="curve" smooth="yes"/>
      <point x="336" y="21"/>
      <point x="370" y="-12"/>
    </contour>
    <contour>
      <point x="690" y="-12" type="curve" smooth="yes"/>
      <point x="733" y="-12"/>
      <point x="767" y="21"/>
      <point x="767" y="63" type="curve" smooth="yes"/>
      <point x="767" y="105"/>
      <point x="733" y="140"/>
      <point x="690" y="140" type="curve" smooth="yes"/>
      <point x="646" y="140"/>
      <point x="612" y="105"/>
      <point x="612" y="63" type="curve" smooth="yes"/>
      <point x="612" y="21"/>
      <point x="646" y="-12"/>
    </contour>
  </outline>
</glyph>
<glyph name="uni2027" format="2">
  <advance width="276"/>
  <unicode hex="2027"/>
  <outline>
    <contour>
      <point x="138" y="142" type="curve" smooth="yes"/>
      <point x="181" y="142"/>
      <point x="215" y="177"/>
      <point x="215" y="218" type="curve" smooth="yes"/>
      <point x="215" y="262"/>
      <point x="181" y="298"/>
      <point x="138" y="298" type="curve" smooth="yes"/>
      <point x="94" y="298"/>
      <point x="60" y="262"/>
      <point x="60" y="218" type="curve" smooth="yes"/>
      <point x="60" y="177"/>
      <point x="94" y="142"/>
    </contour>
  </outline>
</glyph>
<glyph name="fraction" format="2">
  <advance width="128"/>
  <unicode hex="2044"/>
  <outline>
    <contour>
      <point x="-125" y="-27" type="line"/>
      <point x="292" y="582" type="line"/>
      <point x="253" y="609" type="line"/>
      <point x="-163" y="0" type="line"/>
    </contour>
  </outline>
</glyph>
<glyph name="Euro" format="2">
  <advance width="485"/>
  <unicode hex="20AC"/>
  <outline>
    <contour>
      <point x="304" y="-12" type="curve" smooth="yes"/>
      <point x="398" y="-12"/>
      <point x="467" y="34"/>
      <point x="471" y="108" type="curve"/>
      <point x="468" y="138"/>
      <point x="447" y="149"/>
      <point x="425" y="149" type="curve" smooth="yes"/>
      <point x="396" y="149"/>
      <point x="368" y="137"/>
      <point x="356" y="78" type="curve" smooth="yes"/>
      <point x="342" y="12" type="line"/>
      <point x="414" y="53" type="line"/>
      <point x="377" y="36"/>
      <point x="354" y="33"/>
      <point x="328" y="33" type="curve" smooth="yes"/>
      <point x="240" y="33"/>
      <point x="175" y="121"/>
      <point x="175" y="292" type="curve" smooth="yes"/>
      <point x="175" y="466"/>
      <point x="238" y="552"/>
      <point x="319" y="552" type="curve" smooth="yes"/>
      <point x="345" y="552"/>
      <point x="376" y="549"/>
      <point x="419" y="529" type="curve"/>
      <point x="341" y="572" type="line"/>
      <point x="356" y="505" type="line" smooth="yes"/>
      <point x="368" y="448"/>
      <point x="393" y="434"/>
      <point x="423" y="434" type="curve" smooth="yes"/>
      <point x="444" y="434"/>
      <point x="467" y="446"/>
      <point x="472" y="476" type="curve"/>
      <point x="467" y="549"/>
      <point x="402" y="598"/>
      <point x="310" y="598" type="curve" smooth="yes"/>
      <point x="167" y="598"/>
      <point x="58" y="494"/>
      <point x="58" y="292" type="curve" smooth="yes"/>
      <point x="58" y="91"/>
      <point x="158" y="-12"/>
    </contour>
    <contour>
      <point x="10" y="333" type="line"/>
      <point x="371" y="333" type="line"/>
      <point x="371" y="384" type="line"/>
      <point x="10" y="384" type="line"/>
    </contour>
    <contour>
      <point x="10" y="204" type="line"/>
      <point x="371" y="204" type="line"/>
      <point x="371" y="253" type="line"/>
      <point x="10" y="253" type="line"/>
    </contour>
  </outline>
</glyph>
<glyph name="trademark" format="2">
  <advance width="700"/>
  <unicode hex="2122"/>
  <outline>
    <contour>
      <point x="340" y="608" type="line"/>
      <point x="339" y="336" type="line"/>
      <point x="368" y="336" type="line"/>
      <point x="369" y="608" type="line"/>
    </contour>
    <contour>
      <point x="310" y="608" type="line"/>
      <point x="310" y="579" type="line"/>
      <point x="368" y="574" type="line"/>
      <point x="335" y="603" type="line"/>
      <point x="449" y="336" type="line"/>
      <point x="471" y="336" type="line"/>
      <point x="586" y="608" type="line"/>
      <point x="554" y="608" type="line"/>
      <point x="477" y="421" type="line"/>
      <point x="497" y="418" type="line"/>
      <point x="412" y="608" type="line"/>
    </contour>
    <contour>
      <point x="582" y="574" type="line"/>
      <point x="598" y="574" type="line"/>
      <point x="662" y="579" type="line"/>
      <point x="662" y="608" type="line"/>
      <point x="582" y="608" type="line"/>
    </contour>
    <contour>
      <point x="552" y="336" type="line"/>
      <point x="632" y="336" type="line"/>
      <point x="632" y="608" type="line"/>
      <point x="573" y="608" type="line"/>
      <point x="552" y="563" type="line"/>
    </contour>
    <contour>
      <point x="585" y="370" type="line"/>
      <point x="521" y="364" type="line"/>
      <point x="521" y="336" type="line"/>
      <point x="662" y="336" type="line"/>
      <point x="662" y="364" type="line"/>
      <point x="598" y="370" type="line"/>
    </contour>
    <contour>
      <point x="345" y="370" type="line"/>
      <point x="299" y="364" type="line"/>
      <point x="299" y="336" type="line"/>
      <point x="406" y="336" type="line"/>
      <point x="406" y="364" type="line"/>
      <point x="362" y="370" type="line"/>
    </contour>
    <contour>
      <point x="143" y="370" type="line"/>
      <point x="81" y="364" type="line"/>
      <point x="81" y="336" type="line"/>
      <point x="230" y="336" type="line"/>
      <point x="230" y="364" type="line"/>
      <point x="167" y="370" type="line"/>
    </contour>
    <contour>
      <point x="115" y="336" type="line"/>
      <point x="195" y="336" type="line"/>
      <point x="195" y="608" type="line"/>
      <point x="115" y="608" type="line"/>
    </contour>
    <contour>
      <point x="268" y="579" type="line"/>
      <point x="235" y="608" type="line"/>
      <point x="244" y="528" type="line"/>
      <point x="283" y="528" type="line"/>
      <point x="282" y="608" type="line"/>
      <point x="29" y="608" type="line"/>
      <point x="28" y="528" type="line"/>
      <point x="66" y="528" type="line"/>
      <point x="76" y="608" type="line"/>
      <point x="43" y="579" type="line"/>
    </contour>
  </outline>
</glyph>
<glyph name="Delta" format="2">
  <advance width="559"/>
  <unicode hex="2206"/>
  <outline>
    <contour>
      <point x="34" y="0" type="line"/>
      <point x="60" y="0" type="line"/>
      <point x="264" y="543" type="line"/>
      <point x="234" y="511" type="line"/>
      <point x="418" y="0" type="line"/>
      <point x="536" y="0" type="line"/>
      <point x="536" y="63" type="line"/>
      <point x="325" y="609" type="line"/>
      <point x="243" y="609" type="line"/>
      <point x="34" y="63" type="line"/>
    </contour>
    <contour>
      <point x="56" y="0" type="line"/>
      <point x="456" y="0" type="line"/>
      <point x="456" y="87" type="line"/>
      <point x="56" y="87" type="line"/>
    </contour>
  </outline>
</glyph>
<glyph name="product" format="2">
  <advance width="701"/>
  <unicode hex="220F"/>
  <outline>
    <contour>
      <point x="535" y="555" type="line"/>
      <point x="535" y="608" type="line"/>
      <point x="172" y="608" type="line"/>
      <point x="172" y="555" type="line"/>
    </contour>
    <contour>
      <point x="157" y="-56" type="line"/>
      <point x="31" y="-69" type="line"/>
      <point x="31" y="-115" type="line"/>
      <point x="310" y="-115" type="line"/>
      <point x="310" y="-69" type="line"/>
      <point x="182" y="-56" type="line"/>
    </contour>
    <contour>
      <point x="106" y="170" type="line" smooth="yes"/>
      <point x="106" y="73"/>
      <point x="106" y="-22"/>
      <point x="103" y="-115" type="curve"/>
      <point x="241" y="-115" type="line"/>
      <point x="238" y="-20"/>
      <point x="238" y="75"/>
      <point x="238" y="170" type="curve" smooth="yes"/>
      <point x="238" y="322" type="line" smooth="yes"/>
      <point x="238" y="419"/>
      <point x="238" y="515"/>
      <point x="241" y="608" type="curve"/>
      <point x="103" y="608" type="line"/>
      <point x="106" y="513"/>
      <point x="106" y="417"/>
      <point x="106" y="322" type="curve" smooth="yes"/>
    </contour>
    <contour>
      <point x="529" y="549" type="line"/>
      <point x="542" y="549" type="line"/>
      <point x="671" y="563" type="line"/>
      <point x="671" y="608" type="line"/>
      <point x="529" y="608" type="line"/>
    </contour>
    <contour>
      <point x="464" y="170" type="line" smooth="yes"/>
      <point x="464" y="73"/>
      <point x="464" y="-22"/>
      <point x="461" y="-115" type="curve"/>
      <point x="598" y="-115" type="line"/>
      <point x="596" y="-20"/>
      <point x="596" y="75"/>
      <point x="596" y="170" type="curve" smooth="yes"/>
      <point x="596" y="322" type="line" smooth="yes"/>
      <point x="596" y="419"/>
      <point x="596" y="515"/>
      <point x="598" y="608" type="curve"/>
      <point x="461" y="608" type="line"/>
      <point x="464" y="513"/>
      <point x="464" y="417"/>
      <point x="464" y="322" type="curve" smooth="yes"/>
    </contour>
    <contour>
      <point x="519" y="-56" type="line"/>
      <point x="391" y="-69" type="line"/>
      <point x="391" y="-115" type="line"/>
      <point x="671" y="-115" type="line"/>
      <point x="671" y="-69" type="line"/>
      <point x="542" y="-56" type="line"/>
    </contour>
    <contour>
      <point x="157" y="549" type="line"/>
      <point x="172" y="549" type="line"/>
      <point x="172" y="608" type="line"/>
      <point x="31" y="608" type="line"/>
      <point x="31" y="563" type="line"/>
    </contour>
  </outline>
</glyph>
<glyph name="summation" format="2">
  <advance width="524"/>
  <unicode hex="2211"/>
  <outline>
    <contour>
      <point x="425" y="439" type="line"/>
      <point x="492" y="439" type="line"/>
      <point x="484" y="608" type="line"/>
      <point x="86" y="608" type="line"/>
      <point x="86" y="557" type="line"/>
      <point x="452" y="557" type="line"/>
      <point x="390" y="608" type="line"/>
    </contour>
    <contour>
      <point x="18" y="-115" type="line"/>
      <point x="499" y="-115" type="line"/>
      <point x="506" y="99" type="line"/>
      <point x="438" y="99" type="line"/>
      <point x="403" y="-69" type="line"/>
      <point x="468" y="-18" type="line"/>
      <point x="75" y="-18" type="line"/>
      <point x="98" y="-41" type="line"/>
      <point x="339" y="282" type="line"/>
      <point x="146" y="608" type="line"/>
      <point x="22" y="608" type="line"/>
      <point x="22" y="563" type="line"/>
      <point x="250" y="186" type="line"/>
      <point x="270" y="295" type="line"/>
      <point x="18" y="-44" type="line"/>
    </contour>
  </outline>
</glyph>
<glyph name="integral" format="2">
  <advance width="340"/>
  <unicode hex="222B"/>
  <outline>
    <contour>
      <point x="132" y="-8" type="curve" smooth="yes"/>
      <point x="132" y="-97"/>
      <point x="110" y="-171"/>
      <point x="36" y="-197" type="curve"/>
      <point x="85" y="-189" type="line"/>
      <point x="53" y="-146" type="line" smooth="yes"/>
      <point x="32" y="-119"/>
      <point x="11" y="-110"/>
      <point x="-12" y="-110" type="curve" smooth="yes"/>
      <point x="-46" y="-110"/>
      <point x="-66" y="-132"/>
      <point x="-69" y="-167" type="curve"/>
      <point x="-57" y="-197"/>
      <point x="-23" y="-221"/>
      <point x="36" y="-221" type="curve" smooth="yes"/>
      <point x="128" y="-221"/>
      <point x="238" y="-138"/>
      <point x="238" y="47" type="curve" smooth="yes"/>
      <point x="238" y="171"/>
      <point x="207" y="362"/>
      <point x="207" y="489" type="curve" smooth="yes"/>
      <point x="207" y="571"/>
      <point x="228" y="653"/>
      <point x="301" y="679" type="curve"/>
      <point x="253" y="671" type="line"/>
      <point x="286" y="628" type="line" smooth="yes"/>
      <point x="307" y="600"/>
      <point x="327" y="591"/>
      <point x="352" y="591" type="curve" smooth="yes"/>
      <point x="385" y="591"/>
      <point x="404" y="614"/>
      <point x="407" y="648" type="curve"/>
      <point x="395" y="681"/>
      <point x="358" y="703"/>
      <point x="308" y="703" type="curve" smooth="yes"/>
      <point x="195" y="703"/>
      <point x="100" y="602"/>
      <point x="100" y="433" type="curve" smooth="yes"/>
      <point x="100" y="296"/>
      <point x="132" y="128"/>
    </contour>
  </outline>
</glyph>
<glyph name="approxequal" format="2">
  <advance width="496"/>
  <unicode hex="2248"/>
  <outline>
    <contour>
      <point x="267" y="227" type="curve" smooth="yes"/>
      <point x="230" y="264"/>
      <point x="195" y="278"/>
      <point x="158" y="278" type="curve" smooth="yes"/>
      <point x="88" y="278"/>
      <point x="42" y="233"/>
      <point x="39" y="126" type="curve"/>
      <point x="102" y="118" type="line"/>
      <point x="107" y="184"/>
      <point x="128" y="205"/>
      <point x="153" y="205" type="curve" smooth="yes"/>
      <point x="175" y="205"/>
      <point x="195" y="197"/>
      <point x="228" y="164" type="curve" smooth="yes"/>
      <point x="265" y="126"/>
      <point x="299" y="112"/>
      <point x="338" y="112" type="curve" smooth="yes"/>
      <point x="405" y="112"/>
      <point x="454" y="156"/>
      <point x="457" y="264" type="curve"/>
      <point x="394" y="272" type="line"/>
      <point x="389" y="206"/>
      <point x="368" y="185"/>
      <point x="343" y="185" type="curve" smooth="yes"/>
      <point x="322" y="185"/>
      <point x="300" y="193"/>
    </contour>
    <contour>
      <point x="267" y="448" type="curve" smooth="yes"/>
      <point x="230" y="484"/>
      <point x="195" y="499"/>
      <point x="158" y="499" type="curve" smooth="yes"/>
      <point x="88" y="499"/>
      <point x="42" y="454"/>
      <point x="39" y="346" type="curve"/>
      <point x="102" y="339" type="line"/>
      <point x="107" y="405"/>
      <point x="128" y="425"/>
      <point x="153" y="425" type="curve" smooth="yes"/>
      <point x="175" y="425"/>
      <point x="195" y="418"/>
      <point x="228" y="385" type="curve" smooth="yes"/>
      <point x="265" y="347"/>
      <point x="299" y="333"/>
      <point x="338" y="333" type="curve" smooth="yes"/>
      <point x="405" y="333"/>
      <point x="454" y="377"/>
      <point x="457" y="485" type="curve"/>
      <point x="394" y="493" type="line"/>
      <point x="389" y="426"/>
      <point x="368" y="406"/>
      <point x="343" y="406" type="curve" smooth="yes"/>
      <point x="322" y="406"/>
      <point x="300" y="414"/>
    </contour>
  </outline>
</glyph>
<glyph name="notequal" format="2">
  <advance width="496"/>
  <unicode hex="2260"/>
  <outline>
    <contour>
      <point x="125" y="36" type="line"/>
      <point x="407" y="538" type="line"/>
      <point x="368" y="561" type="line"/>
      <point x="84" y="58" type="line"/>
    </contour>
    <contour>
      <point x="469" y="168" type="line"/>
      <point x="469" y="240" type="line"/>
      <point x="26" y="240" type="line"/>
      <point x="26" y="168" type="line"/>
    </contour>
    <contour>
      <point x="469" y="358" type="line"/>
      <point x="469" y="429" type="line"/>
      <point x="26" y="429" type="line"/>
      <point x="26" y="358" type="line"/>
    </contour>
  </outline>
</glyph>
<glyph name="lessequal" format="2">
  <advance width="496"/>
  <unicode hex="2264"/>
  <outline>
    <contour>
      <point x="469" y="0" type="line"/>
      <point x="469" y="71" type="line"/>
      <point x="26" y="71" type="line"/>
      <point x="26" y="0" type="line"/>
    </contour>
    <contour>
      <point x="38" y="285" type="line"/>
      <point x="414" y="102" type="line"/>
      <point x="447" y="168" type="line"/>
      <point x="92" y="333" type="line"/>
      <point x="92" y="291" type="line"/>
      <point x="447" y="457" type="line"/>
      <point x="414" y="523" type="line"/>
      <point x="38" y="341" type="line"/>
    </contour>
  </outline>
</glyph>
<glyph name="lozenge" format="2">
  <advance width="552"/>
  <unicode hex="25CA"/>
  <outline>
    <contour>
      <point x="422" y="299" type="line"/>
      <point x="276" y="47" type="line"/>
      <point x="129" y="299" type="line"/>
      <point x="276" y="550" type="line"/>
    </contour>
    <contour>
      <point x="510" y="299" type="line"/>
      <point x="289" y="656" type="line"/>
      <point x="261" y="656" type="line"/>
      <point x="41" y="299" type="line"/>
      <point x="261" y="-58" type="line"/>
      <point x="289" y="-58" type="line"/>
    </contour>
  </outline>
</glyph>
<glyph name="uni25CC" format="2">
  <advance width="552"/>
  <unicode hex="25CC"/>
  <anchor x="276" y="-20" name="L"/>
  <anchor x="276" y="480" name="U"/>
  <outline>
    <contour>
      <point x="106" y="91" type="curve" smooth="yes"/>
      <point x="129" y="91"/>
      <point x="145" y="104"/>
      <point x="145" y="129" type="curve" smooth="yes"/>
      <point x="145" y="154"/>
      <point x="128" y="169"/>
      <point x="106" y="169" type="curve" smooth="yes"/>
      <point x="88" y="169"/>
      <point x="69" y="154"/>
      <point x="69" y="129" type="curve" smooth="yes"/>
      <point x="69" y="104"/>
      <point x="88" y="91"/>
    </contour>
    <contour>
      <point x="80" y="190" type="curve" smooth="yes"/>
      <point x="104" y="190"/>
      <point x="120" y="205"/>
      <point x="120" y="230" type="curve" smooth="yes"/>
      <point x="120" y="254"/>
      <point x="103" y="268"/>
      <point x="80" y="268" type="curve" smooth="yes"/>
      <point x="61" y="268"/>
      <point x="43" y="254"/>
      <point x="43" y="230" type="curve" smooth="yes"/>
      <point x="43" y="205"/>
      <point x="61" y="190"/>
    </contour>
    <contour>
      <point x="106" y="290" type="curve" smooth="yes"/>
      <point x="129" y="290"/>
      <point x="145" y="306"/>
      <point x="145" y="331" type="curve" smooth="yes"/>
      <point x="145" y="356"/>
      <point x="128" y="369"/>
      <point x="106" y="369" type="curve" smooth="yes"/>
      <point x="88" y="369"/>
      <point x="69" y="356"/>
      <point x="69" y="331" type="curve" smooth="yes"/>
      <point x="69" y="306"/>
      <point x="88" y="290"/>
    </contour>
    <contour>
      <point x="178" y="15" type="curve" smooth="yes"/>
      <point x="200" y="15"/>
      <point x="217" y="30"/>
      <point x="217" y="56" type="curve" smooth="yes"/>
      <point x="217" y="80"/>
      <point x="198" y="93"/>
      <point x="178" y="93" type="curve" smooth="yes"/>
      <point x="158" y="93"/>
      <point x="139" y="80"/>
      <point x="139" y="56" type="curve" smooth="yes"/>
      <point x="139" y="30"/>
      <point x="158" y="15"/>
    </contour>
    <contour>
      <point x="178" y="366" type="curve" smooth="yes"/>
      <point x="200" y="366"/>
      <point x="217" y="380"/>
      <point x="217" y="404" type="curve" smooth="yes"/>
      <point x="217" y="430"/>
      <point x="198" y="444"/>
      <point x="178" y="444" type="curve" smooth="yes"/>
      <point x="158" y="444"/>
      <point x="139" y="430"/>
      <point x="139" y="404" type="curve" smooth="yes"/>
      <point x="139" y="380"/>
      <point x="158" y="366"/>
    </contour>
    <contour>
      <point x="275" y="-9" type="curve" smooth="yes"/>
      <point x="298" y="-9"/>
      <point x="313" y="5"/>
      <point x="313" y="31" type="curve" smooth="yes"/>
      <point x="313" y="55"/>
      <point x="297" y="69"/>
      <point x="275" y="69" type="curve" smooth="yes"/>
      <point x="255" y="69"/>
      <point x="238" y="55"/>
      <point x="238" y="31" type="curve" smooth="yes"/>
      <point x="238" y="5"/>
      <point x="255" y="-9"/>
    </contour>
    <contour>
      <point x="275" y="390" type="curve" smooth="yes"/>
      <point x="298" y="390"/>
      <point x="313" y="405"/>
      <point x="313" y="430" type="curve" smooth="yes"/>
      <point x="313" y="454"/>
      <point x="297" y="468"/>
      <point x="275" y="468" type="curve" smooth="yes"/>
      <point x="255" y="468"/>
      <point x="238" y="454"/>
      <point x="238" y="430" type="curve" smooth="yes"/>
      <point x="238" y="405"/>
      <point x="255" y="390"/>
    </contour>
    <contour>
      <point x="371" y="15" type="curve" smooth="yes"/>
      <point x="395" y="15"/>
      <point x="411" y="30"/>
      <point x="411" y="56" type="curve" smooth="yes"/>
      <point x="411" y="80"/>
      <point x="392" y="93"/>
      <point x="371" y="93" type="curve" smooth="yes"/>
      <point x="352" y="93"/>
      <point x="333" y="80"/>
      <point x="333" y="56" type="curve" smooth="yes"/>
      <point x="333" y="30"/>
      <point x="352" y="15"/>
    </contour>
    <contour>
      <point x="371" y="365" type="curve" smooth="yes"/>
      <point x="395" y="365"/>
      <point x="411" y="379"/>
      <point x="411" y="404" type="curve" smooth="yes"/>
      <point x="411" y="429"/>
      <point x="392" y="444"/>
      <point x="371" y="444" type="curve" smooth="yes"/>
      <point x="352" y="444"/>
      <point x="333" y="429"/>
      <point x="333" y="404" type="curve" smooth="yes"/>
      <point x="333" y="379"/>
      <point x="352" y="365"/>
    </contour>
    <contour>
      <point x="445" y="91" type="curve" smooth="yes"/>
      <point x="467" y="91"/>
      <point x="483" y="104"/>
      <point x="483" y="129" type="curve" smooth="yes"/>
      <point x="483" y="154"/>
      <point x="465" y="169"/>
      <point x="445" y="169" type="curve" smooth="yes"/>
      <point x="424" y="169"/>
      <point x="405" y="154"/>
      <point x="405" y="129" type="curve" smooth="yes"/>
      <point x="405" y="104"/>
      <point x="424" y="91"/>
    </contour>
    <contour>
      <point x="470" y="190" type="curve" smooth="yes"/>
      <point x="492" y="190"/>
      <point x="508" y="205"/>
      <point x="508" y="230" type="curve" smooth="yes"/>
      <point x="508" y="254"/>
      <point x="490" y="268"/>
      <point x="470" y="268" type="curve" smooth="yes"/>
      <point x="448" y="268"/>
      <point x="431" y="254"/>
      <point x="431" y="230" type="curve" smooth="yes"/>
      <point x="431" y="205"/>
      <point x="448" y="190"/>
    </contour>
    <contour>
      <point x="445" y="290" type="curve" smooth="yes"/>
      <point x="467" y="290"/>
      <point x="483" y="305"/>
      <point x="483" y="330" type="curve" smooth="yes"/>
      <point x="483" y="355"/>
      <point x="465" y="368"/>
      <point x="445" y="368" type="curve" smooth="yes"/>
      <point x="424" y="368"/>
      <point x="405" y="355"/>
      <point x="405" y="330" type="curve" smooth="yes"/>
      <point x="405" y="305"/>
      <point x="424" y="290"/>
    </contour>
  </outline>
</glyph>
<glyph name="uniA4D1" format="2">
  <advance width="526"/>
  <unicode hex="A4D1"/>
  <outline>
    <contour>
      <point x="52" y="0" type="line"/>
      <point x="196" y="0" type="line"/>
      <point x="196" y="240" type="line"/>
      <point x="124" y="210" type="line"/>
      <point x="262" y="210" type="line" smooth="yes"/>
      <point x="364" y="210"/>
      <point x="482" y="260"/>
      <point x="482" y="377" type="curve" smooth="yes"/>
      <point x="482" y="489"/>
      <point x="362" y="530"/>
      <point x="262" y="530" type="curve" smooth="yes"/>
      <point x="52" y="530" type="line"/>
    </contour>
    <contour>
      <point x="196" y="260" type="line"/>
      <point x="196" y="490" type="line"/>
      <point x="124" y="438" type="line"/>
      <point x="252" y="438" type="line" smooth="yes"/>
      <point x="302" y="438"/>
      <point x="338" y="424"/>
      <point x="338" y="372" type="curve" smooth="yes"/>
      <point x="338" y="320"/>
      <point x="302" y="302"/>
      <point x="252" y="302" type="curve" smooth="yes"/>
      <point x="124" y="302" type="line"/>
    </contour>
  </outline>
</glyph>
<glyph name="uniA4D4" format="2">
  <advance width="568"/>
  <unicode hex="A4D4"/>
  <outline>
    <contour>
      <point x="212" y="0" type="line"/>
      <point x="356" y="0" type="line"/>
      <point x="356" y="438" type="line"/>
      <point x="526" y="438" type="line"/>
      <point x="526" y="530" type="line"/>
      <point x="42" y="530" type="line"/>
      <point x="42" y="438" type="line"/>
      <point x="212" y="438" type="line"/>
    </contour>
  </outline>
</glyph>
<glyph name="uniA4D7" format="2">
  <advance width="576"/>
  <unicode hex="A4D7"/>
  <outline>
    <contour>
      <point x="164" y="116" type="line"/>
      <point x="534" y="530" type="line"/>
      <point x="368" y="530" type="line"/>
      <point x="124" y="239" type="line"/>
    </contour>
    <contour>
      <point x="52" y="0" type="line"/>
      <point x="196" y="0" type="line"/>
      <point x="196" y="530" type="line"/>
      <point x="52" y="530" type="line"/>
    </contour>
    <contour>
      <point x="380" y="0" type="line"/>
      <point x="540" y="0" type="line"/>
      <point x="301" y="334" type="line"/>
      <point x="205" y="270" type="line"/>
    </contour>
  </outline>
</glyph>
<glyph name="uniA4D8" format="2">
  <advance width="576"/>
  <unicode hex="A4D8"/>
  <outline>
    <contour>
      <point x="36" y="0" type="line"/>
      <point x="205" y="0" type="line"/>
      <point x="449" y="291" type="line"/>
      <point x="409" y="415" type="line"/>
    </contour>
    <contour>
      <point x="275" y="206" type="line"/>
      <point x="370" y="271" type="line"/>
      <point x="197" y="530" type="line"/>
      <point x="36" y="530" type="line"/>
    </contour>
    <contour>
      <point x="380" y="0" type="line"/>
      <point x="524" y="0" type="line"/>
      <point x="524" y="530" type="line"/>
      <point x="380" y="530" type="line"/>
    </contour>
  </outline>
</glyph>
<glyph name="uniA4DA" format="2">
  <advance width="542"/>
  <unicode hex="A4DA"/>
  <outline>
    <contour>
      <point x="288" y="-8" type="curve" smooth="yes"/>
      <point x="421" y="-8"/>
      <point x="494" y="69"/>
      <point x="506" y="155" type="curve"/>
      <point x="364" y="176" type="line"/>
      <point x="361" y="121"/>
      <point x="328" y="78"/>
      <point x="288" y="78" type="curve" smooth="yes"/>
      <point x="208" y="78"/>
      <point x="188" y="168"/>
      <point x="188" y="265" type="curve" smooth="yes"/>
      <point x="188" y="366"/>
      <point x="208" y="452"/>
      <point x="288" y="452" type="curve" smooth="yes"/>
      <point x="323" y="452"/>
      <point x="354" y="425"/>
      <point x="359" y="379" type="curve"/>
      <point x="500" y="404" type="line"/>
      <point x="473" y="489"/>
      <point x="408" y="538"/>
      <point x="288" y="538" type="curve" smooth="yes"/>
      <point x="113" y="538"/>
      <point x="44" y="410"/>
      <point x="44" y="260" type="curve" smooth="yes"/>
      <point x="44" y="110"/>
      <point x="113" y="-8"/>
    </contour>
  </outline>
</glyph>
<glyph name="uniA4DB" format="2">
  <advance width="545"/>
  <unicode hex="A4DB"/>
  <outline>
    <contour>
      <point x="257" y="-8" type="curve" smooth="yes"/>
      <point x="422" y="-8"/>
      <point x="501" y="120"/>
      <point x="501" y="270" type="curve" smooth="yes"/>
      <point x="501" y="420"/>
      <point x="422" y="538"/>
      <point x="257" y="538" type="curve" smooth="yes"/>
      <point x="137" y="538"/>
      <point x="73" y="486"/>
      <point x="46" y="401" type="curve"/>
      <point x="188" y="372" type="line"/>
      <point x="193" y="417"/>
      <point x="222" y="452"/>
      <point x="257" y="452" type="curve" smooth="yes"/>
      <point x="337" y="452"/>
      <point x="357" y="370"/>
      <point x="357" y="265" type="curve" smooth="yes"/>
      <point x="357" y="160"/>
      <point x="337" y="78"/>
      <point x="257" y="78" type="curve" smooth="yes"/>
      <point x="217" y="78"/>
      <point x="181" y="116"/>
      <point x="178" y="183" type="curve"/>
      <point x="36" y="155" type="line"/>
      <point x="48" y="49"/>
      <point x="137" y="-8"/>
    </contour>
  </outline>
</glyph>
<glyph name="uniA4DC" format="2">
  <advance width="526"/>
  <unicode hex="A4DC"/>
  <outline>
    <contour>
      <point x="42" y="0" type="line"/>
      <point x="484" y="0" type="line"/>
      <point x="484" y="86" type="line"/>
      <point x="124" y="86" type="line"/>
      <point x="162" y="45" type="line"/>
      <point x="484" y="455" type="line"/>
      <point x="484" y="530" type="line"/>
      <point x="57" y="530" type="line"/>
      <point x="57" y="444" type="line"/>
      <point x="402" y="444" type="line"/>
      <point x="364" y="485" type="line"/>
      <point x="42" y="75" type="line"/>
    </contour>
  </outline>
</glyph>
<glyph name="uniA4DE" format="2">
  <advance width="494"/>
  <unicode hex="A4DE"/>
  <outline>
    <contour>
      <point x="42" y="0" type="line"/>
      <point x="442" y="0" type="line"/>
      <point x="442" y="530" type="line"/>
      <point x="298" y="530" type="line"/>
      <point x="298" y="80" type="line"/>
      <point x="42" y="80" type="line"/>
    </contour>
    <contour>
      <point x="74" y="224" type="line"/>
      <point x="370" y="224" type="line"/>
      <point x="370" y="316" type="line"/>
      <point x="74" y="316" type="line"/>
    </contour>
  </outline>
</glyph>
<glyph name="uniA4DF" format="2">
  <advance width="626"/>
  <unicode hex="A4DF"/>
  <outline>
    <contour>
      <point x="52" y="0" type="line"/>
      <point x="196" y="0" type="line"/>
      <point x="196" y="339" type="line"/>
      <point x="259" y="226" type="line" smooth="yes"/>
      <point x="271" y="205"/>
      <point x="288" y="191"/>
      <point x="313" y="191" type="curve" smooth="yes"/>
      <point x="338" y="191"/>
      <point x="355" y="205"/>
      <point x="367" y="226" type="curve" smooth="yes"/>
      <point x="430" y="339" type="line"/>
      <point x="430" y="0" type="line"/>
      <point x="574" y="0" type="line"/>
      <point x="574" y="530" type="line"/>
      <point x="435" y="530" type="line"/>
      <point x="288" y="265" type="line"/>
      <point x="338" y="265" type="line"/>
      <point x="191" y="530" type="line"/>
      <point x="52" y="530" type="line"/>
    </contour>
  </outline>
</glyph>
<glyph name="uniA4E0" format="2">
  <advance width="562"/>
  <unicode hex="A4E0"/>
  <outline>
    <contour>
      <point x="52" y="0" type="line"/>
      <point x="196" y="0" type="line"/>
      <point x="196" y="413" type="line"/>
      <point x="153" y="406" type="line"/>
      <point x="371" y="0" type="line"/>
      <point x="510" y="0" type="line"/>
      <point x="510" y="530" type="line"/>
      <point x="366" y="530" type="line"/>
      <point x="366" y="117" type="line"/>
      <point x="409" y="124" type="line"/>
      <point x="191" y="530" type="line"/>
      <point x="52" y="530" type="line"/>
    </contour>
  </outline>
</glyph>
<glyph name="uniA4E1" format="2">
  <advance width="484"/>
  <unicode hex="A4E1"/>
  <outline>
    <contour>
      <point x="52" y="0" type="line"/>
      <point x="442" y="0" type="line"/>
      <point x="442" y="92" type="line"/>
      <point x="196" y="92" type="line"/>
      <point x="196" y="530" type="line"/>
      <point x="52" y="530" type="line"/>
    </contour>
  </outline>
</glyph>
<glyph name="uniA4E2" format="2">
  <advance width="530"/>
  <unicode hex="A4E2"/>
  <outline>
    <contour>
      <point x="262" y="-8" type="curve" smooth="yes"/>
      <point x="375" y="-8"/>
      <point x="486" y="40"/>
      <point x="486" y="155" type="curve" smooth="yes"/>
      <point x="486" y="268"/>
      <point x="352" y="302"/>
      <point x="272" y="317" type="curve" smooth="yes"/>
      <point x="208" y="329"/>
      <point x="194" y="343"/>
      <point x="194" y="395" type="curve" smooth="yes"/>
      <point x="194" y="434"/>
      <point x="230" y="452"/>
      <point x="262" y="452" type="curve" smooth="yes"/>
      <point x="293" y="452"/>
      <point x="331" y="439"/>
      <point x="333" y="382" type="curve"/>
      <point x="478" y="391" type="line"/>
      <point x="474" y="481"/>
      <point x="380" y="538"/>
      <point x="262" y="538" type="curve" smooth="yes"/>
      <point x="149" y="538"/>
      <point x="50" y="490"/>
      <point x="50" y="390" type="curve" smooth="yes"/>
      <point x="50" y="287"/>
      <point x="168" y="248"/>
      <point x="249" y="234" type="curve" smooth="yes"/>
      <point x="325" y="220"/>
      <point x="342" y="204"/>
      <point x="342" y="150" type="curve" smooth="yes"/>
      <point x="342" y="95"/>
      <point x="295" y="78"/>
      <point x="262" y="78" type="curve" smooth="yes"/>
      <point x="215" y="78"/>
      <point x="189" y="102"/>
      <point x="181" y="166" type="curve"/>
      <point x="36" y="161" type="line"/>
      <point x="47" y="42"/>
      <point x="144" y="-8"/>
    </contour>
  </outline>
</glyph>
<glyph name="uniA4E3" format="2">
  <advance width="512"/>
  <unicode hex="A4E3"/>
  <outline>
    <contour>
      <point x="64" y="0" type="line"/>
      <point x="148" y="0" type="line"/>
      <point x="148" y="250" type="line"/>
      <point x="106" y="220" type="line"/>
      <point x="276" y="220" type="line" smooth="yes"/>
      <point x="389" y="220"/>
      <point x="452" y="289"/>
      <point x="452" y="382" type="curve" smooth="yes"/>
      <point x="452" y="470"/>
      <point x="389" y="530"/>
      <point x="276" y="530" type="curve" smooth="yes"/>
      <point x="64" y="530" type="line"/>
    </contour>
    <contour>
      <point x="370" y="0" type="curve"/>
      <point x="464" y="0" type="line"/>
      <point x="422" y="80"/>
      <point x="358" y="240"/>
      <point x="301" y="260" type="curve"/>
      <point x="196" y="260" type="line"/>
      <point x="277" y="220"/>
      <point x="329" y="89"/>
    </contour>
    <contour>
      <point x="148" y="270" type="line"/>
      <point x="148" y="480" type="line"/>
      <point x="106" y="450" type="line"/>
      <point x="276" y="450" type="line" smooth="yes"/>
      <point x="331" y="450"/>
      <point x="368" y="426"/>
      <point x="368" y="377" type="curve" smooth="yes"/>
      <point x="368" y="324"/>
      <point x="331" y="300"/>
      <point x="276" y="300" type="curve" smooth="yes"/>
      <point x="106" y="300" type="line"/>
    </contour>
  </outline>
</glyph>
<glyph name="uniA4E5" format="2">
  <advance width="646"/>
  <unicode hex="A4E5"/>
  <outline>
    <contour>
      <point x="36" y="0" type="line"/>
      <point x="186" y="0" type="line"/>
      <point x="339" y="464" type="line"/>
      <point x="307" y="464" type="line"/>
      <point x="460" y="0" type="line"/>
      <point x="610" y="0" type="line"/>
      <point x="398" y="530" type="line"/>
      <point x="248" y="530" type="line"/>
    </contour>
  </outline>
</glyph>
<glyph name="uniA4E6" format="2">
  <advance width="646"/>
  <unicode hex="A4E6"/>
  <outline>
    <contour>
      <point x="248" y="0" type="line"/>
      <point x="398" y="0" type="line"/>
      <point x="610" y="530" type="line"/>
      <point x="460" y="530" type="line"/>
      <point x="307" y="66" type="line"/>
      <point x="339" y="66" type="line"/>
      <point x="186" y="530" type="line"/>
      <point x="36" y="530" type="line"/>
    </contour>
  </outline>
</glyph>
<glyph name="uniA4E8" format="2">
  <advance width="588"/>
  <unicode hex="A4E8"/>
  <outline>
    <contour>
      <point x="278" y="-8" type="curve" smooth="yes"/>
      <point x="464" y="-8"/>
      <point x="544" y="124"/>
      <point x="544" y="270" type="curve" smooth="yes"/>
      <point x="544" y="417"/>
      <point x="464" y="538"/>
      <point x="278" y="538" type="curve" smooth="yes"/>
      <point x="198" y="538"/>
      <point x="106" y="499"/>
      <point x="44" y="449" type="curve"/>
      <point x="44" y="242" type="line"/>
      <point x="288" y="242" type="line"/>
      <point x="288" y="328" type="line"/>
      <point x="188" y="328" type="line"/>
      <point x="188" y="453" type="line"/>
      <point x="156" y="370" type="line"/>
      <point x="195" y="430"/>
      <point x="233" y="452"/>
      <point x="278" y="452" type="curve" smooth="yes"/>
      <point x="371" y="452"/>
      <point x="400" y="362"/>
      <point x="400" y="265" type="curve" smooth="yes"/>
      <point x="400" y="164"/>
      <point x="371" y="78"/>
      <point x="278" y="78" type="curve" smooth="yes"/>
      <point x="233" y="78"/>
      <point x="203" y="111"/>
      <point x="185" y="161" type="curve"/>
      <point x="52" y="115" type="line"/>
      <point x="92" y="32"/>
      <point x="168" y="-8"/>
    </contour>
  </outline>
</glyph>
<glyph name="uniA4EA" format="2">
  <advance width="766"/>
  <unicode hex="A4EA"/>
  <outline>
    <contour>
      <point x="161" y="0" type="line"/>
      <point x="297" y="0" type="line"/>
      <point x="385" y="365" type="line"/>
      <point x="381" y="365" type="line"/>
      <point x="469" y="0" type="line"/>
      <point x="605" y="0" type="line"/>
      <point x="730" y="530" type="line"/>
      <point x="584" y="530" type="line"/>
      <point x="514" y="91" type="line"/>
      <point x="536" y="91" type="line"/>
      <point x="441" y="430" type="line" smooth="yes"/>
      <point x="435" y="451"/>
      <point x="415" y="476"/>
      <point x="383" y="476" type="curve" smooth="yes"/>
      <point x="351" y="476"/>
      <point x="331" y="451"/>
      <point x="325" y="430" type="curve" smooth="yes"/>
      <point x="230" y="91" type="line"/>
      <point x="252" y="91" type="line"/>
      <point x="182" y="530" type="line"/>
      <point x="36" y="530" type="line"/>
    </contour>
  </outline>
</glyph>
<glyph name="uniA4EB" format="2">
  <advance width="582"/>
  <unicode hex="A4EB"/>
  <outline>
    <contour>
      <point x="395" y="0" type="line"/>
      <point x="546" y="0" type="line"/>
      <point x="324" y="320" type="line"/>
      <point x="187" y="530" type="line"/>
      <point x="36" y="530" type="line"/>
      <point x="248" y="225" type="line"/>
    </contour>
    <contour>
      <point x="38" y="0" type="line"/>
      <point x="155" y="0" type="line"/>
      <point x="310" y="236" type="line"/>
      <point x="249" y="307" type="line"/>
    </contour>
    <contour>
      <point x="327" y="241" type="line"/>
      <point x="524" y="530" type="line"/>
      <point x="407" y="530" type="line"/>
      <point x="267" y="312" type="line"/>
    </contour>
  </outline>
</glyph>
<glyph name="uniA4EC" format="2">
  <advance width="560"/>
  <unicode hex="A4EC"/>
  <outline>
    <contour>
      <point x="208" y="0" type="line"/>
      <point x="352" y="0" type="line"/>
      <point x="352" y="223" type="line"/>
      <point x="552" y="530" type="line"/>
      <point x="403" y="530" type="line"/>
      <point x="257" y="270" type="line"/>
      <point x="303" y="270" type="line"/>
      <point x="157" y="530" type="line"/>
      <point x="8" y="530" type="line"/>
      <point x="208" y="223" type="line"/>
    </contour>
  </outline>
</glyph>
<glyph name="uniA4EF" format="2">
  <advance width="626"/>
  <unicode hex="A4EF"/>
  <outline>
    <contour>
      <point x="238" y="0" type="line"/>
      <point x="388" y="0" type="line"/>
      <point x="590" y="530" type="line"/>
      <point x="440" y="530" type="line"/>
      <point x="395" y="408" type="line"/>
      <point x="478" y="436" type="line"/>
      <point x="148" y="436" type="line"/>
      <point x="231" y="408" type="line"/>
      <point x="186" y="530" type="line"/>
      <point x="36" y="530" type="line"/>
    </contour>
    <contour>
      <point x="267" y="66" type="line"/>
      <point x="359" y="66" type="line"/>
      <point x="243" y="377" type="line"/>
      <point x="176" y="349" type="line"/>
      <point x="450" y="349" type="line"/>
      <point x="383" y="377" type="line"/>
    </contour>
  </outline>
</glyph>
<glyph name="uniA4F0" format="2">
  <advance width="482"/>
  <unicode hex="A4F0"/>
  <outline>
    <contour>
      <point x="52" y="0" type="line"/>
      <point x="442" y="0" type="line"/>
      <point x="442" y="92" type="line"/>
      <point x="196" y="92" type="line"/>
      <point x="196" y="438" type="line"/>
      <point x="432" y="438" type="line"/>
      <point x="432" y="530" type="line"/>
      <point x="52" y="530" type="line"/>
    </contour>
    <contour>
      <point x="124" y="227" type="line"/>
      <point x="392" y="227" type="line"/>
      <point x="392" y="313" type="line"/>
      <point x="124" y="313" type="line"/>
    </contour>
  </outline>
</glyph>
<glyph name="uniA4F1" format="2">
  <advance width="476"/>
  <unicode hex="A4F1"/>
  <outline>
    <contour>
      <point x="52" y="0" type="line"/>
      <point x="412" y="0" type="line"/>
      <point x="412" y="530" type="line"/>
      <point x="62" y="530" type="line"/>
      <point x="62" y="450" type="line"/>
      <point x="328" y="450" type="line"/>
      <point x="328" y="80" type="line"/>
      <point x="52" y="80" type="line"/>
    </contour>
    <contour>
      <point x="102" y="230" type="line"/>
      <point x="370" y="230" type="line"/>
      <point x="370" y="310" type="line"/>
      <point x="102" y="310" type="line"/>
    </contour>
  </outline>
</glyph>
<glyph name="uniA4F2" format="2">
  <advance width="244"/>
  <unicode hex="A4F2"/>
  <outline>
    <contour>
      <point x="80" y="0" type="line"/>
      <point x="164" y="0" type="line"/>
      <point x="164" y="530" type="line"/>
      <point x="80" y="530" type="line"/>
    </contour>
  </outline>
</glyph>
<glyph name="uniA4F4" format="2">
  <advance width="572"/>
  <unicode hex="A4F4"/>
  <outline>
    <contour>
      <point x="286" y="-8" type="curve" smooth="yes"/>
      <point x="446" y="-8"/>
      <point x="520" y="92"/>
      <point x="520" y="226" type="curve" smooth="yes"/>
      <point x="520" y="530" type="line"/>
      <point x="376" y="530" type="line"/>
      <point x="376" y="238" type="line" smooth="yes"/>
      <point x="376" y="140"/>
      <point x="350" y="84"/>
      <point x="286" y="84" type="curve" smooth="yes"/>
      <point x="222" y="84"/>
      <point x="196" y="140"/>
      <point x="196" y="238" type="curve" smooth="yes"/>
      <point x="196" y="530" type="line"/>
      <point x="52" y="530" type="line"/>
      <point x="52" y="226" type="line" smooth="yes"/>
      <point x="52" y="92"/>
      <point x="126" y="-8"/>
    </contour>
  </outline>
</glyph>
<glyph name="uniA4F5" format="2">
  <advance width="572"/>
  <unicode hex="A4F5"/>
  <outline>
    <contour>
      <point x="52" y="0" type="line"/>
      <point x="196" y="0" type="line"/>
      <point x="196" y="292" type="line" smooth="yes"/>
      <point x="196" y="390"/>
      <point x="222" y="446"/>
      <point x="286" y="446" type="curve" smooth="yes"/>
      <point x="350" y="446"/>
      <point x="376" y="390"/>
      <point x="376" y="292" type="curve" smooth="yes"/>
      <point x="376" y="0" type="line"/>
      <point x="520" y="0" type="line"/>
      <point x="520" y="304" type="line" smooth="yes"/>
      <point x="520" y="438"/>
      <point x="446" y="538"/>
      <point x="286" y="538" type="curve" smooth="yes"/>
      <point x="126" y="538"/>
      <point x="52" y="438"/>
      <point x="52" y="304" type="curve" smooth="yes"/>
    </contour>
  </outline>
</glyph>
<glyph name="uniA4F6" format="2">
  <advance width="456"/>
  <unicode hex="A4F6"/>
  <outline>
    <contour>
      <point x="308" y="0" type="line"/>
      <point x="392" y="0" type="line"/>
      <point x="392" y="530" type="line"/>
      <point x="52" y="530" type="line"/>
      <point x="52" y="450" type="line"/>
      <point x="308" y="450" type="line"/>
    </contour>
  </outline>
</glyph>
<glyph name="uniA4F8" format="2">
  <advance width="256"/>
  <unicode hex="A4F8"/>
  <outline>
    <contour>
      <point x="136" y="-8" type="curve" smooth="yes"/>
      <point x="183" y="-8"/>
      <point x="220" y="30"/>
      <point x="220" y="76" type="curve" smooth="yes"/>
      <point x="220" y="122"/>
      <point x="183" y="160"/>
      <point x="136" y="160" type="curve" smooth="yes"/>
      <point x="90" y="160"/>
      <point x="52" y="122"/>
      <point x="52" y="76" type="curve" smooth="yes"/>
      <point x="52" y="30"/>
      <point x="90" y="-8"/>
    </contour>
  </outline>
</glyph>
<glyph name="uniA4FE" format="2">
  <advance width="570"/>
  <unicode hex="A4FE"/>
  <outline>
    <contour>
      <point x="72" y="207" type="line"/>
      <point x="350" y="207" type="line"/>
      <point x="350" y="293" type="line"/>
      <point x="72" y="293" type="line"/>
    </contour>
    <component base="uniA4F8" xOffset="310"/>
  </outline>
</glyph>
<glyph name="uniA4FF" format="2">
  <advance width="466"/>
  <unicode hex="A4FF"/>
  <outline>
    <contour>
      <point x="72" y="290" type="line"/>
      <point x="410" y="290" type="line"/>
      <point x="410" y="370" type="line"/>
      <point x="72" y="370" type="line"/>
    </contour>
    <contour>
      <point x="72" y="130" type="line"/>
      <point x="410" y="130" type="line"/>
      <point x="410" y="210" type="line"/>
      <point x="72" y="210" type="line"/>
    </contour>
  </outline>
</glyph>
<glyph name="f_i" format="2">
  <advance width="575"/>
  <unicode hex="FB01"/>
  <outline>
    <contour>
      <point x="86" y="0" type="curve"/>
      <point x="215" y="0" type="line"/>
      <point x="213" y="64"/>
      <point x="212" y="128"/>
      <point x="212" y="193" type="curve" smooth="yes"/>
      <point x="212" y="398" type="line" smooth="yes"/>
      <point x="208" y="520"/>
      <point x="224" y="568"/>
      <point x="263" y="607" type="curve" smooth="yes"/>
      <point x="291" y="635"/>
      <point x="329" y="651"/>
      <point x="368" y="655" type="curve"/>
      <point x="322" y="652" type="line"/>
      <point x="354" y="604" type="line" smooth="yes"/>
      <point x="377" y="563"/>
      <point x="400" y="545"/>
      <point x="429" y="545" type="curve" smooth="yes"/>
      <point x="463" y="545"/>
      <point x="483" y="568"/>
      <point x="485" y="598" type="curve"/>
      <point x="480" y="654"/>
      <point x="422" y="681"/>
      <point x="351" y="681" type="curve" smooth="yes"/>
      <point x="276" y="681"/>
      <point x="207" y="656"/>
      <point x="168" y="619" type="curve" smooth="yes"/>
      <point x="120" y="571"/>
      <point x="97" y="528"/>
      <point x="89" y="425" type="curve"/>
      <point x="131" y="447" type="line"/>
      <point x="23" y="433" type="line"/>
      <point x="23" y="383" type="line"/>
      <point x="89" y="383" type="line"/>
      <point x="89" y="193" type="line" smooth="yes"/>
      <point x="89" y="128"/>
      <point x="88" y="64"/>
    </contour>
    <contour>
      <point x="29" y="0" type="line"/>
      <point x="277" y="0" type="line"/>
      <point x="277" y="39" type="line"/>
      <point x="183" y="57" type="line"/>
      <point x="124" y="57" type="line"/>
      <point x="29" y="39" type="line"/>
    </contour>
    <contour>
      <point x="150" y="383" type="line"/>
      <point x="474" y="383" type="line"/>
      <point x="474" y="441" type="line"/>
      <point x="150" y="441" type="line"/>
    </contour>
    <contour>
      <point x="373" y="0" type="curve"/>
      <point x="502" y="0" type="line"/>
      <point x="500" y="41"/>
      <point x="499" y="136"/>
      <point x="499" y="193" type="curve" smooth="yes"/>
      <point x="499" y="318" type="line"/>
      <point x="502" y="446" type="line"/>
      <point x="486" y="455" type="line"/>
      <point x="310" y="426" type="line"/>
      <point x="310" y="391" type="line"/>
      <point x="373" y="385" type="line"/>
      <point x="375" y="344"/>
      <point x="376" y="310"/>
      <point x="376" y="253" type="curve" smooth="yes"/>
      <point x="376" y="193" type="line" smooth="yes"/>
      <point x="376" y="136"/>
      <point x="375" y="41"/>
    </contour>
    <contour>
      <point x="318" y="0" type="line"/>
      <point x="552" y="0" type="line"/>
      <point x="552" y="39" type="line"/>
      <point x="461" y="57" type="line"/>
      <point x="408" y="57" type="line"/>
      <point x="318" y="39" type="line"/>
    </contour>
  </outline>
</glyph>
